  0
SECTION
  2
HEADER
  9
$ACADVER
  1
AC1027
  9
$ACADMAINTVER
 70
     0
  9
$DWGCODEPAGE
  3
ANSI_1252
  9
$LASTSAVEDBY
  1

  9
$REQUIREDVERSIONS
160
0
  9
$INSBASE
 10
0.0
 20
0.0
 30
0.0
  9
$EXTMIN
 10
0.0
 20
0.0
 30
0.0
  9
$EXTMAX
 10
0.0
 20
0.0
 30
0.0
  9
$LIMMIN
 10
0.0
 20
0.0
  9
$LIMMAX
 10
12.0
 20
9.0
  9
$ORTHOMODE
 70
     0
  9
$REGENMODE
 70
     1
  9
$FILLMODE
 70
     1
  9
$QTEXTMODE
 70
     0
  9
$MIRRTEXT
 70
     0
  9
$LTSCALE
 40
1.0
  9
$ATTMODE
 70
     1
  9
$TEXTSIZE
 40
0.2
  9
$TRACEWID
 40
0.05
  9
$TEXTSTYLE
  7
STANDARD
  9
$CLAYER
  8
0
  9
$CELTYPE
  6
BYLAYER
  9
$CECOLOR
 62
   256
  9
$CELTSCALE
 40
1.0
  9
$DISPSILH
 70
     0
  9
$DIMSCALE
 40
1.0
  9
$DIMASZ
 40
0.18
  9
$DIMEXO
 40
0.0625
  9
$DIMDLI
 40
0.38
  9
$DIMRND
 40
0.0
  9
$DIMDLE
 40
0.0
  9
$DIMEXE
 40
0.18
  9
$DIMTP
 40
0.0
  9
$DIMTM
 40
0.0
  9
$DIMTXT
 40
0.18
  9
$DIMCEN
 40
0.09
  9
$DIMTSZ
 40
0.0
  9
$DIMTOL
 70
     0
  9
$DIMLIM
 70
     0
  9
$DIMTIH
 70
     1
  9
$DIMTOH
 70
     1
  9
$DIMSE1
 70
     0
  9
$DIMSE2
 70
     0
  9
$DIMTAD
 70
     0
  9
$DIMZIN
 70
     0
  9
$DIMBLK
  1

  9
$DIMASO
 70
     1
  9
$DIMSHO
 70
     1
  9
$DIMPOST
  1

  9
$DIMAPOST
  1

  9
$DIMALT
 70
     0
  9
$DIMALTD
 70
     2
  9
$DIMALTF
 40
25.4
  9
$DIMLFAC
 40
1.0
  9
$DIMTOFL
 70
     0
  9
$DIMTVP
 40
0.0
  9
$DIMTIX
 70
     0
  9
$DIMSOXD
 70
     0
  9
$DIMSAH
 70
     0
  9
$DIMBLK1
  1

  9
$DIMBLK2
  1

  9
$DIMSTYLE
  2
STANDARD
  9
$DIMCLRD
 70
     0
  9
$DIMCLRE
 70
     0
  9
$DIMCLRT
 70
     0
  9
$DIMTFAC
 40
1.0
  9
$DIMGAP
 40
0.09
  9
$DIMJUST
 70
     0
  9
$DIMSD1
 70
     0
  9
$DIMSD2
 70
     0
  9
$DIMTOLJ
 70
     1
  9
$DIMTZIN
 70
     0
  9
$DIMALTZ
 70
     0
  9
$DIMALTTZ
 70
     0
  9
$DIMUPT
 70
     0
  9
$DIMDEC
 70
     4
  9
$DIMTDEC
 70
     4
  9
$DIMALTU
 70
     2
  9
$DIMALTTD
 70
     2
  9
$DIMTXSTY
  7
STANDARD
  9
$DIMAUNIT
 70
     0
  9
$DIMADEC
 70
     0
  9
$DIMALTRND
 40
0.0
  9
$DIMAZIN
 70
     0
  9
$DIMDSEP
 70
    46
  9
$DIMATFIT
 70
     0
  9
$DIMFRAC
 70
     0
  9
$DIMLDRBLK
  1

  9
$DIMLUNIT
 70
     2
  9
$DIMLWD
 70
    -2
  9
$DIMLWE
 70
    -2
  9
$DIMTMOVE
 70
     0
  9
$DIMFXL
 40
1.0
  9
$DIMFXLON
 70
     0
  9
$DIMJOGANG
 40
0.785398163397
  9
$DIMTFILL
 70
     0
  9
$DIMTFILLCLR
 70
     0
  9
$DIMARCSYM
 70
     0
  9
$DIMLTYPE
  6
BYLAYER
  9
$DIMLTEX1
  6

  9
$DIMLTEX2
  6

  9
$DIMTXTDIRECTION
 70
     0
  9
$LUNITS
 70
     2
  9
$LUPREC
 70
     4
  9
$SKETCHINC
 40
0.1
  9
$FILLETRAD
 40
0.0
  9
$AUNITS
 70
     0
  9
$AUPREC
 70
     0
  9
$MENU
  1
.
  9
$ELEVATION
 40
0.0
  9
$PELEVATION
 40
0.0
  9
$THICKNESS
 40
0.0
  9
$LIMCHECK
 70
     0
  9
$CHAMFERA
 40
0.0
  9
$CHAMFERB
 40
0.0
  9
$CHAMFERC
 40
0.0
  9
$CHAMFERD
 40
0.0
  9
$SKPOLY
 70
     0
  9
$TDCREATE
 40
2461044.032569444273
  9
$TDUCREATE
 40
2461043.963819444645
  9
$TDUPDATE
 40
2461044.032569444273
  9
$TDUUPDATE
 40
2461043.963819444645
  9
$TDINDWG
 40
0.0
  9
$TDUSRTIMER
 40
0.0
  9
$USRTIMER
 70
     1
  9
$ANGBASE
 50
0.0
  9
$ANGDIR
 70
     0
  9
$PDMODE
 70
     0
  9
$PDSIZE
 40
0.0
  9
$PLINEWID
 40
0.0
  9
$SPLFRAME
 70
     0
  9
$SPLINETYPE
 70
     6
  9
$SPLINESEGS
 70
     8
  9
$HANDSEED
  5
ED
  9
$SURFTAB1
 70
     6
  9
$SURFTAB2
 70
     6
  9
$SURFTYPE
 70
     6
  9
$SURFU
 70
     6
  9
$SURFV
 70
     6
  9
$UCSBASE
  2

  9
$UCSNAME
  2

  9
$UCSORG
 10
0.0
 20
0.0
 30
0.0
  9
$UCSXDIR
 10
1.0
 20
0.0
 30
0.0
  9
$UCSYDIR
 10
0.0
 20
1.0
 30
0.0
  9
$UCSORTHOREF
  2

  9
$UCSORTHOVIEW
 70
     0
  9
$UCSORGTOP
 10
0.0
 20
0.0
 30
0.0
  9
$UCSORGBOTTOM
 10
0.0
 20
0.0
 30
0.0
  9
$UCSORGLEFT
 10
0.0
 20
0.0
 30
0.0
  9
$UCSORGRIGHT
 10
0.0
 20
0.0
 30
0.0
  9
$UCSORGFRONT
 10
0.0
 20
0.0
 30
0.0
  9
$UCSORGBACK
 10
0.0
 20
0.0
 30
0.0
  9
$PUCSBASE
  2

  9
$PUCSNAME
  2

  9
$PUCSORG
 10
0.0
 20
0.0
 30
0.0
  9
$PUCSXDIR
 10
1.0
 20
0.0
 30
0.0
  9
$PUCSYDIR
 10
0.0
 20
1.0
 30
0.0
  9
$PUCSORTHOREF
  2

  9
$PUCSORTHOVIEW
 70
     0
  9
$PUCSORGTOP
 10
0.0
 20
0.0
 30
0.0
  9
$PUCSORGBOTTOM
 10
0.0
 20
0.0
 30
0.0
  9
$PUCSORGLEFT
 10
0.0
 20
0.0
 30
0.0
  9
$PUCSORGRIGHT
 10
0.0
 20
0.0
 30
0.0
  9
$PUCSORGFRONT
 10
0.0
 20
0.0
 30
0.0
  9
$PUCSORGBACK
 10
0.0
 20
0.0
 30
0.0
  9
$USERI1
 70
     0
  9
$USERI2
 70
     0
  9
$USERI3
 70
     0
  9
$USERI4
 70
     0
  9
$USERI5
 70
     0
  9
$USERR1
 40
0.0
  9
$USERR2
 40
0.0
  9
$USERR3
 40
0.0
  9
$USERR4
 40
0.0
  9
$USERR5
 40
0.0
  9
$WORLDVIEW
 70
     1
  9
$SHADEDGE
 70
     3
  9
$SHADEDIF
 70
    70
  9
$TILEMODE
 70
     1
  9
$MAXACTVP
 70
    64
  9
$PINSBASE
 10
0.0
 20
0.0
 30
0.0
  9
$PLIMCHECK
 70
     0
  9
$PEXTMIN
 10
100000000000000000000.0
 20
100000000000000000000.0
 30
100000000000000000000.0
  9
$PEXTMAX
 10
-100000000000000000000.0
 20
-100000000000000000000.0
 30
-100000000000000000000.0
  9
$PLIMMIN
 10
0.0
 20
0.0
  9
$PLIMMAX
 10
12.0
 20
9.0
  9
$UNITMODE
 70
     0
  9
$VISRETAIN
 70
     1
  9
$PLINEGEN
 70
     0
  9
$PSLTSCALE
 70
     1
  9
$TREEDEPTH
 70
  3020
  9
$CMLSTYLE
  2
STANDARD
  9
$CMLJUST
 70
     0
  9
$CMLSCALE
 40
1.0
  9
$PROXYGRAPHICS
 70
     1
  9
$MEASUREMENT
 70
     0
  9
$CELWEIGHT
370
    -1
  9
$ENDCAPS
280
     0
  9
$JOINSTYLE
280
     0
  9
$LWDISPLAY
290
0
  9
$INSUNITS
 70
     6
  9
$HYPERLINKBASE
  1

  9
$STYLESHEET
  1

  9
$XEDIT
290
1
  9
$CEPSNTYPE
380
     0
  9
$PSTYLEMODE
290
1
  9
$FINGERPRINTGUID
  2
b9321cd0-396c-47d1-9180-bc46bd19db72
  9
$VERSIONGUID
  2
1f32d7f4-ddb9-4e85-ac02-b477a4ef8b80
  9
$EXTNAMES
290
1
  9
$PSVPSCALE
 40
0.0
  9
$OLESTARTUP
290
0
  9
$SORTENTS
280
   127
  9
$INDEXCTL
280
     0
  9
$HIDETEXT
280
     0
  9
$XCLIPFRAME
280
     2
  9
$HALOGAP
280
     0
  9
$OBSCOLOR
 70
   257
  9
$OBSLTYPE
280
     0
  9
$INTERSECTIONDISPLAY
280
     0
  9
$INTERSECTIONCOLOR
 70
   257
  9
$DIMASSOC
280
     1
  9
$PROJECTNAME
  1

  9
$CAMERADISPLAY
290
0
  9
$LENSLENGTH
 40
50.0
  9
$CAMERAHEIGHT
 40
0.0
  9
$STEPSPERSEC
 40
2.0
  9
$STEPSIZE
 40
6.0
  9
$3DDWFPREC
 40
2.0
  9
$PSOLWIDTH
 40
0.25
  9
$PSOLHEIGHT
 40
4.0
  9
$LOFTANG1
 40
1.570796326795
  9
$LOFTANG2
 40
1.570796326795
  9
$LOFTMAG1
 40
0.0
  9
$LOFTMAG2
 40
0.0
  9
$LOFTPARAM
 70
     7
  9
$LOFTNORMALS
280
     1
  9
$LATITUDE
 40
37.795
  9
$LONGITUDE
 40
-122.394
  9
$NORTHDIRECTION
 40
0.0
  9
$TIMEZONE
 70
 -8000
  9
$LIGHTGLYPHDISPLAY
280
     1
  9
$TILEMODELIGHTSYNCH
280
     1
  9
$SOLIDHIST
280
     0
  9
$SHOWHIST
280
     1
  9
$DWFFRAME
280
     2
  9
$DGNFRAME
280
     0
  9
$REALWORLDSCALE
290
1
  9
$INTERFERECOLOR
 62
     1
  9
$CSHADOW
280
     0
  9
$SHADOWPLANELOCATION
 40
0.0
  0
ENDSEC
  0
SECTION
  2
TABLES
  0
TABLE
  2
APPID
100
AcDbSymbolTable
 70
     0
  0
APPID
  5
1
100
AcDbSymbolTableRecord
100
AcDbRegAppTableRecord
  2
ACAD
 70
     0
  0
APPID
  5
2
100
AcDbSymbolTableRecord
100
AcDbRegAppTableRecord
  2
ACADANNOTATIVE
 70
     0
  0
APPID
  5
4
100
AcDbSymbolTableRecord
100
AcDbRegAppTableRecord
  2
ACAD_MLEADERVER
 70
     0
  0
APPID
  5
3
100
AcDbSymbolTableRecord
100
AcDbRegAppTableRecord
  2
ACAD_NAV_VCDISPLAY
 70
     0
  0
ENDTAB
  0
TABLE
  2
BLOCK_RECORD
100
AcDbSymbolTable
 70
     0
  0
BLOCK_RECORD
  5
5
100
AcDbSymbolTableRecord
100
AcDbBlockTableRecord
  2
*MODEL_SPACE
 70
     0
340
0
 70
     0
280
     1
281
     1
  0
BLOCK_RECORD
  5
6
100
AcDbSymbolTableRecord
100
AcDbBlockTableRecord
  2
*PAPER_SPACE
 70
     0
340
0
 70
     0
280
     1
281
     1
  0
ENDTAB
  0
TABLE
  2
DIMSTYLE
100
AcDbSymbolTable
 70
     0
  0
DIMSTYLE
  5
A
100
AcDbSymbolTableRecord
100
AcDbDimStyleTableRecord
  2
ANNOTATIVE
 70
     0
  3

  4

 40
1.0
 41
0.18
 42
0.0625
 43
0.38
 44
0.18
 45
0.0
 46
0.0
 47
0.0
 48
0.0
 71
     0
 72
     0
 73
     1
 74
     1
 75
     0
 76
     0
 77
     0
 78
     0
 79
     0
140
0.18
141
0.09
142
0.0
143
25.4
144
1.0
145
0.0
146
1.0
147
0.09
148
0.0
170
     0
171
     2
172
     0
173
     0
174
     0
175
     0
176
     0
177
     0
178
     0
179
    12
270
     1
271
     0
272
     0
273
     1
274
     0
275
     0
276
    12
277
     1
278
    46
279
     0
280
     0
281
     0
282
     0
283
     0
284
     0
285
     0
286
     0
287
     0
288
     1
289
     0
340

341

342

343

344

371
     0
372
     0
  0
DIMSTYLE
  5
9
100
AcDbSymbolTableRecord
100
AcDbDimStyleTableRecord
  2
STANDARD
 70
     0
  3

  4

 40
1.0
 41
0.18
 42
0.0625
 43
0.38
 44
0.18
 45
0.0
 46
0.0
 47
0.0
 48
0.0
 71
     0
 72
     0
 73
     1
 74
     1
 75
     0
 76
     0
 77
     0
 78
     0
 79
     0
140
0.18
141
0.09
142
0.0
143
25.4
144
1.0
145
0.0
146
1.0
147
0.09
148
0.0
170
     0
171
     2
172
     0
173
     0
174
     0
175
     0
176
     0
177
     0
178
     0
179
    12
270
     1
271
     0
272
     0
273
     1
274
     0
275
     0
276
    12
277
     1
278
    46
279
     0
280
     0
281
     0
282
     0
283
     0
284
     0
285
     0
286
     0
287
     0
288
     1
289
     0
340

341

342

343

344

371
     0
372
     0
  0
ENDTAB
  0
TABLE
  2
LTYPE
100
AcDbSymbolTable
 70
     0
  0
LTYPE
  5
C
100
AcDbSymbolTableRecord
100
AcDbLinetypeTableRecord
  2
BYBLOCK
 70
     0
  3

 72
    65
 73
     0
 40
0.0
  0
LTYPE
  5
B
100
AcDbSymbolTableRecord
100
AcDbLinetypeTableRecord
  2
BYLAYER
 70
     0
  3

 72
    65
 73
     0
 40
0.0
  0
LTYPE
  5
8
100
AcDbSymbolTableRecord
100
AcDbLinetypeTableRecord
  2
CONTINUOUS
 70
     0
  3

 72
    65
 73
     0
 40
0.0
  0
ENDTAB
  0
TABLE
  2
LAYER
100
AcDbSymbolTable
 70
     0
  0
LAYER
  5
7
100
AcDbSymbolTableRecord
100
AcDbLayerTableRecord
  2
0
 70
     0
 62
     7
  6
CONTINUOUS
290
1
370
     0
390
0
347
0
  0
LAYER
  5
10
100
AcDbSymbolTableRecord
100
AcDbLayerTableRecord
  2
A-WALL
 70
     0
 62
     7
  6
CONTINUOUS
290
1
370
     0
390
0
347
0
  0
LAYER
  5
11
100
AcDbSymbolTableRecord
100
AcDbLayerTableRecord
  2
A-WALL-INTR
 70
     0
 62
     8
  6
CONTINUOUS
290
1
370
     0
390
0
347
0
  0
LAYER
  5
12
100
AcDbSymbolTableRecord
100
AcDbLayerTableRecord
  2
A-DOOR
 70
     0
 62
     3
  6
CONTINUOUS
290
1
370
     0
390
0
347
0
  0
LAYER
  5
13
100
AcDbSymbolTableRecord
100
AcDbLayerTableRecord
  2
A-GLAZ
 70
     0
 62
     4
  6
CONTINUOUS
290
1
370
     0
390
0
347
0
  0
LAYER
  5
14
100
AcDbSymbolTableRecord
100
AcDbLayerTableRecord
  2
A-DIMS
 70
     0
 62
     2
  6
CONTINUOUS
290
1
370
     0
390
0
347
0
  0
LAYER
  5
15
100
AcDbSymbolTableRecord
100
AcDbLayerTableRecord
  2
A-TEXT
 70
     0
 62
     7
  6
CONTINUOUS
290
1
370
     0
390
0
347
0
  0
LAYER
  5
16
100
AcDbSymbolTableRecord
100
AcDbLayerTableRecord
  2
A-ANNO
 70
     0
 62
     7
  6
CONTINUOUS
290
1
370
     0
390
0
347
0
  0
LAYER
  5
17
100
AcDbSymbolTableRecord
100
AcDbLayerTableRecord
  2
A-DECK
 70
     0
 62
    30
  6
CONTINUOUS
290
1
370
     0
390
0
347
0
  0
LAYER
  5
18
100
AcDbSymbolTableRecord
100
AcDbLayerTableRecord
  2
A-DECK-PATT
 70
     0
 62
     8
  6
CONTINUOUS
290
1
370
     0
390
0
347
0
  0
LAYER
  5
19
100
AcDbSymbolTableRecord
100
AcDbLayerTableRecord
  2
A-PLMB-FIXT
 70
     0
 62
     4
  6
CONTINUOUS
290
1
370
     0
390
0
347
0
  0
LAYER
  5
1A
100
AcDbSymbolTableRecord
100
AcDbLayerTableRecord
  2
A-FIXT
 70
     0
 62
     1
  6
CONTINUOUS
290
1
370
     0
390
0
347
0
  0
LAYER
  5
1B
100
AcDbSymbolTableRecord
100
AcDbLayerTableRecord
  2
A-ANNO-TTLB
 70
     0
 62
     7
  6
CONTINUOUS
290
1
370
     0
390
0
347
0
  0
LAYER
  5
1C
100
AcDbSymbolTableRecord
100
AcDbLayerTableRecord
  2
A-ELEV
 70
     0
 62
     7
  6
CONTINUOUS
290
1
370
     0
390
0
347
0
  0
LAYER
  5
1D
100
AcDbSymbolTableRecord
100
AcDbLayerTableRecord
  2
A-SECT
 70
     0
 62
     7
  6
CONTINUOUS
290
1
370
     0
390
0
347
0
  0
LAYER
  5
1E
100
AcDbSymbolTableRecord
100
AcDbLayerTableRecord
  2
A-ROOF
 70
     0
 62
     1
  6
CONTINUOUS
290
1
370
     0
390
0
347
0
  0
ENDTAB
  0
TABLE
  2
STYLE
100
AcDbSymbolTable
 70
     0
  0
STYLE
  5
E
100
AcDbSymbolTableRecord
100
AcDbTextStyleTableRecord
  2
ANNOTATIVE
 70
     0
 40
0.0
 41
1.0
 50
0.0
 71
     0
 42
0.2
  3
txt
  4

  0
STYLE
  5
D
100
AcDbSymbolTableRecord
100
AcDbTextStyleTableRecord
  2
STANDARD
 70
     0
 40
0.0
 41
1.0
 50
0.0
 71
     0
 42
0.2
  3
txt
  4

  0
ENDTAB
  0
TABLE
  2
VPORT
100
AcDbSymbolTable
 70
     0
  0
VPORT
  5
F
100
AcDbSymbolTableRecord
100
AcDbViewportTableRecord
  2
*ACTIVE
 70
     0
 10
0.0
 20
0.0
 11
1.0
 21
1.0
 12
0.0
 22
0.0
 13
0.0
 23
0.0
 14
1.0
 24
1.0
 15
1.0
 25
1.0
 16
0.0
 26
0.0
 36
1.0
 17
0.0
 27
0.0
 37
0.0
 42
50.0
 43
0.0
 44
0.0
 45
1.0
 50
0.0
 51
0.0
 71
     0
 72
  1000
 74
     3
  1

281
     0
170
     0
 61
     0
332
0
333
0
348
0
292
1
282
     0
141
0.0
142
0.0
  0
ENDTAB
  0
ENDSEC
  0
SECTION
  2
ENTITIES
  0
LWPOLYLINE
  5
1F
100
AcDbEntity
  8
A-WALL
347
0
370
     0
430

440
        0
390
0
284
     0
100
AcDbPolyline
 90
        5
 70
     0
 10
0.0
 20
1.0
 91
        0
 10
4.96
 20
1.0
 91
        0
 10
4.96
 20
1.15
 91
        0
 10
0.0
 20
1.15
 91
        0
 10
0.0
 20
1.0
 91
        0
  0
LWPOLYLINE
  5
20
100
AcDbEntity
  8
A-WALL
347
0
370
     0
430

440
        0
390
0
284
     0
100
AcDbPolyline
 90
        5
 70
     0
 10
0.0
 20
3.85
 91
        0
 10
4.96
 20
3.85
 91
        0
 10
4.96
 20
4.0
 91
        0
 10
0.0
 20
4.0
 91
        0
 10
0.0
 20
3.85
 91
        0
  0
LWPOLYLINE
  5
21
100
AcDbEntity
  8
A-WALL
347
0
370
     0
430

440
        0
390
0
284
     0
100
AcDbPolyline
 90
        5
 70
     0
 10
0.0
 20
1.0
 91
        0
 10
0.15
 20
1.0
 91
        0
 10
0.15
 20
4.0
 91
        0
 10
0.0
 20
4.0
 91
        0
 10
0.0
 20
1.0
 91
        0
  0
LWPOLYLINE
  5
22
100
AcDbEntity
  8
A-WALL
347
0
370
     0
430

440
        0
390
0
284
     0
100
AcDbPolyline
 90
        5
 70
     0
 10
4.81
 20
1.0
 91
        0
 10
4.96
 20
1.0
 91
        0
 10
4.96
 20
4.0
 91
        0
 10
4.81
 20
4.0
 91
        0
 10
4.81
 20
1.0
 91
        0
  0
LWPOLYLINE
  5
23
100
AcDbEntity
  8
A-WALL-INTR
347
0
370
     0
430

440
        0
390
0
284
     0
100
AcDbPolyline
 90
        5
 70
     0
 10
2.11
 20
1.15
 91
        0
 10
2.26
 20
1.15
 91
        0
 10
2.26
 20
1.45
 91
        0
 10
2.11
 20
1.45
 91
        0
 10
2.11
 20
1.15
 91
        0
  0
LWPOLYLINE
  5
24
100
AcDbEntity
  8
A-WALL-INTR
347
0
370
     0
430

440
        0
390
0
284
     0
100
AcDbPolyline
 90
        5
 70
     0
 10
2.11
 20
2.25
 91
        0
 10
2.26
 20
2.25
 91
        0
 10
2.26
 20
3.85
 91
        0
 10
2.11
 20
3.85
 91
        0
 10
2.11
 20
2.25
 91
        0
  0
LWPOLYLINE
  5
25
100
AcDbEntity
  8
A-WALL-INTR
347
0
370
     0
430

440
        0
390
0
284
     0
100
AcDbPolyline
 90
        5
 70
     0
 10
3.31
 20
1.15
 91
        0
 10
3.46
 20
1.15
 91
        0
 10
3.46
 20
2.75
 91
        0
 10
3.31
 20
2.75
 91
        0
 10
3.31
 20
1.15
 91
        0
  0
LWPOLYLINE
  5
26
100
AcDbEntity
  8
A-WALL-INTR
347
0
370
     0
430

440
        0
390
0
284
     0
100
AcDbPolyline
 90
        5
 70
     0
 10
3.31
 20
3.55
 91
        0
 10
3.46
 20
3.55
 91
        0
 10
3.46
 20
3.85
 91
        0
 10
3.31
 20
3.85
 91
        0
 10
3.31
 20
3.55
 91
        0
  0
LWPOLYLINE
  5
27
100
AcDbEntity
  8
A-WALL
347
0
370
     0
430

440
        0
390
0
284
     0
100
AcDbPolyline
 90
        4
 70
     0
 10
4.96
 20
1.0
 91
        0
 10
8.61
 20
1.0
 91
        0
 10
8.61
 20
4.0
 91
        0
 10
4.96
 20
4.0
 91
        0
  0
LWPOLYLINE
  5
28
100
AcDbEntity
  8
A-WALL
347
0
370
     0
430

440
        0
390
0
284
     0
100
AcDbPolyline
 90
        5
 70
     0
 10
8.31
 20
1.3
 91
        0
 10
8.46
 20
1.3
 91
        0
 10
8.46
 20
1.45
 91
        0
 10
8.31
 20
1.45
 91
        0
 10
8.31
 20
1.3
 91
        0
  0
LWPOLYLINE
  5
29
100
AcDbEntity
  8
A-WALL
347
0
370
     0
430

440
        0
390
0
284
     0
100
AcDbPolyline
 90
        5
 70
     0
 10
8.31
 20
3.55
 91
        0
 10
8.46
 20
3.55
 91
        0
 10
8.46
 20
3.7
 91
        0
 10
8.31
 20
3.7
 91
        0
 10
8.31
 20
3.55
 91
        0
  0
LINE
  5
2A
100
AcDbEntity
  8
A-DOOR
347
0
370
     0
430

440
        0
390
0
284
     0
100
AcDbLine
 10
2.46
 20
1.15
 30
0.0
 11
2.46
 21
1.95
 31
0.0
  0
ARC
  5
2B
100
AcDbEntity
  8
A-DOOR
347
0
370
     0
430

440
        0
390
0
284
     0
100
AcDbCircle
 10
2.46
 20
1.15
 30
0.0
 40
0.8
100
AcDbArc
 50
90.0
 51
180.0
  0
LINE
  5
2C
100
AcDbEntity
  8
A-DOOR
347
0
370
     0
430

440
        0
390
0
284
     0
100
AcDbLine
 10
2.46
 20
1.15
 30
0.0
 11
1.66
 21
1.15
 31
0.0
  0
LINE
  5
2D
100
AcDbEntity
  8
A-DOOR
347
0
370
     0
430

440
        0
390
0
284
     0
100
AcDbLine
 10
2.11
 20
1.45
 30
0.0
 11
2.91
 21
1.45
 31
0.0
  0
ARC
  5
2E
100
AcDbEntity
  8
A-DOOR
347
0
370
     0
430

440
        0
390
0
284
     0
100
AcDbCircle
 10
2.11
 20
1.45
 30
0.0
 40
0.8
100
AcDbArc
 50
0.0
 51
90.0
  0
LINE
  5
2F
100
AcDbEntity
  8
A-DOOR
347
0
370
     0
430

440
        0
390
0
284
     0
100
AcDbLine
 10
2.11
 20
1.45
 30
0.0
 11
2.11
 21
2.25
 31
0.0
  0
LINE
  5
30
100
AcDbEntity
  8
A-DOOR
347
0
370
     0
430

440
        0
390
0
284
     0
100
AcDbLine
 10
3.46
 20
3.55
 30
0.0
 11
2.66
 21
3.55
 31
0.0
  0
ARC
  5
31
100
AcDbEntity
  8
A-DOOR
347
0
370
     0
430

440
        0
390
0
284
     0
100
AcDbCircle
 10
3.46
 20
3.55
 30
0.0
 40
0.8
100
AcDbArc
 50
180.0
 51
270.0
  0
LINE
  5
32
100
AcDbEntity
  8
A-DOOR
347
0
370
     0
430

440
        0
390
0
284
     0
100
AcDbLine
 10
3.46
 20
3.55
 30
0.0
 11
3.46
 21
2.75
 31
0.0
  0
LWPOLYLINE
  5
33
100
AcDbEntity
  8
A-GLAZ
347
0
370
     0
430

440
        0
390
0
284
     0
100
AcDbPolyline
 90
        5
 70
     0
 10
0.0
 20
2.2
 91
        0
 10
0.15
 20
2.2
 91
        0
 10
0.15
 20
2.8
 91
        0
 10
0.0
 20
2.8
 91
        0
 10
0.0
 20
2.2
 91
        0
  0
LINE
  5
34
100
AcDbEntity
  8
A-GLAZ
347
0
370
     0
430

440
        0
390
0
284
     0
100
AcDbLine
 10
0.075
 20
2.2
 30
0.0
 11
0.075
 21
2.8
 31
0.0
  0
LWPOLYLINE
  5
35
100
AcDbEntity
  8
A-GLAZ
347
0
370
     0
430

440
        0
390
0
284
     0
100
AcDbPolyline
 90
        5
 70
     0
 10
0.83
 20
3.85
 91
        0
 10
1.43
 20
3.85
 91
        0
 10
1.43
 20
4.0
 91
        0
 10
0.83
 20
4.0
 91
        0
 10
0.83
 20
3.85
 91
        0
  0
LINE
  5
36
100
AcDbEntity
  8
A-GLAZ
347
0
370
     0
430

440
        0
390
0
284
     0
100
AcDbLine
 10
0.83
 20
3.925
 30
0.0
 11
1.43
 21
3.925
 31
0.0
  0
LWPOLYLINE
  5
37
100
AcDbEntity
  8
A-GLAZ
347
0
370
     0
430

440
        0
390
0
284
     0
100
AcDbPolyline
 90
        5
 70
     0
 10
3.91
 20
3.85
 91
        0
 10
4.51
 20
3.85
 91
        0
 10
4.51
 20
4.0
 91
        0
 10
3.91
 20
4.0
 91
        0
 10
3.91
 20
3.85
 91
        0
  0
LINE
  5
38
100
AcDbEntity
  8
A-GLAZ
347
0
370
     0
430

440
        0
390
0
284
     0
100
AcDbLine
 10
3.91
 20
3.925
 30
0.0
 11
4.51
 21
3.925
 31
0.0
  0
LWPOLYLINE
  5
39
100
AcDbEntity
  8
A-DECK
347
0
370
     0
430

440
        0
390
0
284
     0
100
AcDbPolyline
 90
        5
 70
     0
 10
0.0
 20
0.0
 91
        0
 10
8.61
 20
0.0
 91
        0
 10
8.61
 20
1.0
 91
        0
 10
0.0
 20
1.0
 91
        0
 10
0.0
 20
0.0
 91
        0
  0
LINE
  5
3A
100
AcDbEntity
  8
A-DECK-PATT
347
0
370
     0
430

440
        0
390
0
284
     0
100
AcDbLine
 10
0.0
 20
0.16
 30
0.0
 11
8.61
 21
0.16
 31
0.0
  0
LINE
  5
3B
100
AcDbEntity
  8
A-DECK-PATT
347
0
370
     0
430

440
        0
390
0
284
     0
100
AcDbLine
 10
0.0
 20
0.32
 30
0.0
 11
8.61
 21
0.32
 31
0.0
  0
LINE
  5
3C
100
AcDbEntity
  8
A-DECK-PATT
347
0
370
     0
430

440
        0
390
0
284
     0
100
AcDbLine
 10
0.0
 20
0.48
 30
0.0
 11
8.61
 21
0.48
 31
0.0
  0
LINE
  5
3D
100
AcDbEntity
  8
A-DECK-PATT
347
0
370
     0
430

440
        0
390
0
284
     0
100
AcDbLine
 10
0.0
 20
0.64
 30
0.0
 11
8.61
 21
0.64
 31
0.0
  0
LINE
  5
3E
100
AcDbEntity
  8
A-DECK-PATT
347
0
370
     0
430

440
        0
390
0
284
     0
100
AcDbLine
 10
0.0
 20
0.8
 30
0.0
 11
8.61
 21
0.8
 31
0.0
  0
LINE
  5
3F
100
AcDbEntity
  8
A-DECK-PATT
347
0
370
     0
430

440
        0
390
0
284
     0
100
AcDbLine
 10
0.0
 20
0.96
 30
0.0
 11
8.61
 21
0.96
 31
0.0
  0
LWPOLYLINE
  5
40
100
AcDbEntity
  8
A-PLMB-FIXT
347
0
370
     0
430

440
        0
390
0
284
     0
100
AcDbPolyline
 90
        5
 70
     0
 10
6.01
 20
1.0
 91
        0
 10
8.21
 20
1.0
 91
        0
 10
8.21
 20
0.0
 91
        0
 10
6.01
 20
0.0
 91
        0
 10
6.01
 20
1.0
 91
        0
  0
CIRCLE
  5
41
100
AcDbEntity
  8
A-PLMB-FIXT
347
0
370
     0
430

440
        0
390
0
284
     0
100
AcDbCircle
 10
7.11
 20
-0.8
 30
0.0
 40
1.0
  0
CIRCLE
  5
42
100
AcDbEntity
  8
A-PLMB-FIXT
347
0
370
     0
430

440
        0
390
0
284
     0
100
AcDbCircle
 10
7.11
 20
-0.8
 30
0.0
 40
0.85
  0
CIRCLE
  5
43
100
AcDbEntity
  8
A-FIXT
347
0
370
     0
430

440
        0
390
0
284
     0
100
AcDbCircle
 10
0.6
 20
1.6
 30
0.0
 40
0.25
  0
LWPOLYLINE
  5
44
100
AcDbEntity
  8
A-FIXT
347
0
370
     0
430

440
        0
390
0
284
     0
100
AcDbPolyline
 90
        5
 70
     0
 10
0.25
 20
3.25
 91
        0
 10
2.01
 20
3.25
 91
        0
 10
2.01
 20
3.75
 91
        0
 10
0.25
 20
3.75
 91
        0
 10
0.25
 20
3.25
 91
        0
  0
LWPOLYLINE
  5
45
100
AcDbEntity
  8
A-FIXT
347
0
370
     0
430

440
        0
390
0
284
     0
100
AcDbPolyline
 90
        5
 70
     0
 10
0.25
 20
2.55
 91
        0
 10
2.01
 20
2.55
 91
        0
 10
2.01
 20
3.05
 91
        0
 10
0.25
 20
3.05
 91
        0
 10
0.25
 20
2.55
 91
        0
  0
TEXT
  5
46
100
AcDbEntity
  8
A-TEXT
347
0
370
     0
430

440
        0
390
0
284
     0
100
AcDbText
 10
1.13
 20
2.59
 30
0.0
 40
0.15
  1
SAUNA
100
AcDbText
  0
TEXT
  5
47
100
AcDbEntity
  8
A-TEXT
347
0
370
     0
430

440
        0
390
0
284
     0
100
AcDbText
 10
1.13
 20
2.41
 30
0.0
 40
0.1
  1
5.3 m²
100
AcDbText
  0
TEXT
  5
48
100
AcDbEntity
  8
A-TEXT
347
0
370
     0
430

440
        0
390
0
284
     0
100
AcDbText
 10
2.86
 20
2.59
 30
0.0
 40
0.15
  1
WASH
100
AcDbText
  0
TEXT
  5
49
100
AcDbEntity
  8
A-TEXT
347
0
370
     0
430

440
        0
390
0
284
     0
100
AcDbText
 10
2.86
 20
2.41
 30
0.0
 40
0.1
  1
2.8 m²
100
AcDbText
  0
TEXT
  5
4A
100
AcDbEntity
  8
A-TEXT
347
0
370
     0
430

440
        0
390
0
284
     0
100
AcDbText
 10
4.21
 20
2.59
 30
0.0
 40
0.15
  1
CHANGING
100
AcDbText
  0
TEXT
  5
4B
100
AcDbEntity
  8
A-TEXT
347
0
370
     0
430

440
        0
390
0
284
     0
100
AcDbText
 10
4.21
 20
2.41
 30
0.0
 40
0.1
  1
3.6 m²
100
AcDbText
  0
TEXT
  5
4C
100
AcDbEntity
  8
A-TEXT
347
0
370
     0
430

440
        0
390
0
284
     0
100
AcDbText
 10
6.785
 20
2.59
 30
0.0
 40
0.15
  1
DECK
100
AcDbText
  0
TEXT
  5
4D
100
AcDbEntity
  8
A-TEXT
347
0
370
     0
430

440
        0
390
0
284
     0
100
AcDbText
 10
6.785
 20
2.41
 30
0.0
 40
0.1
  1
10.9 m²
100
AcDbText
  0
TEXT
  5
4E
100
AcDbEntity
  8
A-TEXT
347
0
370
     0
430

440
        0
390
0
284
     0
100
AcDbText
 10
2.87
 20
0.59
 30
0.0
 40
0.15
  1
TERRACE
100
AcDbText
  0
TEXT
  5
4F
100
AcDbEntity
  8
A-TEXT
347
0
370
     0
430

440
        0
390
0
284
     0
100
AcDbText
 10
2.87
 20
0.41
 30
0.0
 40
0.1
  1
8.6 m²
100
AcDbText
  0
TEXT
  5
50
100
AcDbEntity
  8
A-TEXT
347
0
370
     0
430

440
        0
390
0
284
     0
100
AcDbText
 10
6.81
 20
-0.8
 30
0.0
 40
0.1
  1
HOT TUB^J2m dia.
100
AcDbText
  0
LINE
  5
51
100
AcDbEntity
  8
A-DIMS
347
0
370
     0
430

440
        0
390
0
284
     0
100
AcDbLine
 10
0.0
 20
-1.5
 30
0.0
 11
0.0
 21
-2.05
 31
0.0
  0
LINE
  5
52
100
AcDbEntity
  8
A-DIMS
347
0
370
     0
430

440
        0
390
0
284
     0
100
AcDbLine
 10
8.61
 20
-1.5
 30
0.0
 11
8.61
 21
-2.05
 31
0.0
  0
LINE
  5
53
100
AcDbEntity
  8
A-DIMS
347
0
370
     0
430

440
        0
390
0
284
     0
100
AcDbLine
 10
0.0
 20
-2.1
 30
0.0
 11
8.61
 21
-2.1
 31
0.0
  0
LINE
  5
54
100
AcDbEntity
  8
A-DIMS
347
0
370
     0
430

440
        0
390
0
284
     0
100
AcDbLine
 10
-0.05
 20
-2.15
 30
0.0
 11
0.05
 21
-2.05
 31
0.0
  0
LINE
  5
55
100
AcDbEntity
  8
A-DIMS
347
0
370
     0
430

440
        0
390
0
284
     0
100
AcDbLine
 10
8.56
 20
-2.15
 30
0.0
 11
8.66
 21
-2.05
 31
0.0
  0
TEXT
  5
56
100
AcDbEntity
  8
A-DIMS
347
0
370
     0
430

440
        0
390
0
284
     0
100
AcDbText
 10
4.305
 20
-2.05
 30
0.0
 40
0.1
  1
8.61m
100
AcDbText
  0
LINE
  5
57
100
AcDbEntity
  8
A-DIMS
347
0
370
     0
430

440
        0
390
0
284
     0
100
AcDbLine
 10
0.0
 20
1.0
 30
0.0
 11
0.0
 21
0.75
 31
0.0
  0
LINE
  5
58
100
AcDbEntity
  8
A-DIMS
347
0
370
     0
430

440
        0
390
0
284
     0
100
AcDbLine
 10
2.26
 20
1.0
 30
0.0
 11
2.26
 21
0.75
 31
0.0
  0
LINE
  5
59
100
AcDbEntity
  8
A-DIMS
347
0
370
     0
430

440
        0
390
0
284
     0
100
AcDbLine
 10
0.0
 20
0.7
 30
0.0
 11
2.26
 21
0.7
 31
0.0
  0
LINE
  5
5A
100
AcDbEntity
  8
A-DIMS
347
0
370
     0
430

440
        0
390
0
284
     0
100
AcDbLine
 10
-0.05
 20
0.65
 30
0.0
 11
0.05
 21
0.75
 31
0.0
  0
LINE
  5
5B
100
AcDbEntity
  8
A-DIMS
347
0
370
     0
430

440
        0
390
0
284
     0
100
AcDbLine
 10
2.21
 20
0.65
 30
0.0
 11
2.31
 21
0.75
 31
0.0
  0
TEXT
  5
5C
100
AcDbEntity
  8
A-DIMS
347
0
370
     0
430

440
        0
390
0
284
     0
100
AcDbText
 10
1.13
 20
0.75
 30
0.0
 40
0.1
  1
2.26m
100
AcDbText
  0
LINE
  5
5D
100
AcDbEntity
  8
A-DIMS
347
0
370
     0
430

440
        0
390
0
284
     0
100
AcDbLine
 10
2.26
 20
1.0
 30
0.0
 11
2.26
 21
0.75
 31
0.0
  0
LINE
  5
5E
100
AcDbEntity
  8
A-DIMS
347
0
370
     0
430

440
        0
390
0
284
     0
100
AcDbLine
 10
3.46
 20
1.0
 30
0.0
 11
3.46
 21
0.75
 31
0.0
  0
LINE
  5
5F
100
AcDbEntity
  8
A-DIMS
347
0
370
     0
430

440
        0
390
0
284
     0
100
AcDbLine
 10
2.26
 20
0.7
 30
0.0
 11
3.46
 21
0.7
 31
0.0
  0
LINE
  5
60
100
AcDbEntity
  8
A-DIMS
347
0
370
     0
430

440
        0
390
0
284
     0
100
AcDbLine
 10
2.21
 20
0.65
 30
0.0
 11
2.31
 21
0.75
 31
0.0
  0
LINE
  5
61
100
AcDbEntity
  8
A-DIMS
347
0
370
     0
430

440
        0
390
0
284
     0
100
AcDbLine
 10
3.41
 20
0.65
 30
0.0
 11
3.51
 21
0.75
 31
0.0
  0
TEXT
  5
62
100
AcDbEntity
  8
A-DIMS
347
0
370
     0
430

440
        0
390
0
284
     0
100
AcDbText
 10
2.86
 20
0.75
 30
0.0
 40
0.1
  1
1.20m
100
AcDbText
  0
LINE
  5
63
100
AcDbEntity
  8
A-DIMS
347
0
370
     0
430

440
        0
390
0
284
     0
100
AcDbLine
 10
3.46
 20
1.0
 30
0.0
 11
3.46
 21
0.75
 31
0.0
  0
LINE
  5
64
100
AcDbEntity
  8
A-DIMS
347
0
370
     0
430

440
        0
390
0
284
     0
100
AcDbLine
 10
4.96
 20
1.0
 30
0.0
 11
4.96
 21
0.75
 31
0.0
  0
LINE
  5
65
100
AcDbEntity
  8
A-DIMS
347
0
370
     0
430

440
        0
390
0
284
     0
100
AcDbLine
 10
3.46
 20
0.7
 30
0.0
 11
4.96
 21
0.7
 31
0.0
  0
LINE
  5
66
100
AcDbEntity
  8
A-DIMS
347
0
370
     0
430

440
        0
390
0
284
     0
100
AcDbLine
 10
3.41
 20
0.65
 30
0.0
 11
3.51
 21
0.75
 31
0.0
  0
LINE
  5
67
100
AcDbEntity
  8
A-DIMS
347
0
370
     0
430

440
        0
390
0
284
     0
100
AcDbLine
 10
4.91
 20
0.65
 30
0.0
 11
5.01
 21
0.75
 31
0.0
  0
TEXT
  5
68
100
AcDbEntity
  8
A-DIMS
347
0
370
     0
430

440
        0
390
0
284
     0
100
AcDbText
 10
4.21
 20
0.75
 30
0.0
 40
0.1
  1
1.50m
100
AcDbText
  0
LINE
  5
69
100
AcDbEntity
  8
A-DIMS
347
0
370
     0
430

440
        0
390
0
284
     0
100
AcDbLine
 10
4.96
 20
1.0
 30
0.0
 11
4.96
 21
0.75
 31
0.0
  0
LINE
  5
6A
100
AcDbEntity
  8
A-DIMS
347
0
370
     0
430

440
        0
390
0
284
     0
100
AcDbLine
 10
8.61
 20
1.0
 30
0.0
 11
8.61
 21
0.75
 31
0.0
  0
LINE
  5
6B
100
AcDbEntity
  8
A-DIMS
347
0
370
     0
430

440
        0
390
0
284
     0
100
AcDbLine
 10
4.96
 20
0.7
 30
0.0
 11
8.61
 21
0.7
 31
0.0
  0
LINE
  5
6C
100
AcDbEntity
  8
A-DIMS
347
0
370
     0
430

440
        0
390
0
284
     0
100
AcDbLine
 10
4.91
 20
0.65
 30
0.0
 11
5.01
 21
0.75
 31
0.0
  0
LINE
  5
6D
100
AcDbEntity
  8
A-DIMS
347
0
370
     0
430

440
        0
390
0
284
     0
100
AcDbLine
 10
8.56
 20
0.65
 30
0.0
 11
8.66
 21
0.75
 31
0.0
  0
TEXT
  5
6E
100
AcDbEntity
  8
A-DIMS
347
0
370
     0
430

440
        0
390
0
284
     0
100
AcDbText
 10
6.785
 20
0.75
 30
0.0
 40
0.1
  1
3.65m
100
AcDbText
  0
LINE
  5
6F
100
AcDbEntity
  8
A-DIMS
347
0
370
     0
430

440
        0
390
0
284
     0
100
AcDbLine
 10
0.0
 20
0.0
 30
0.0
 11
-0.55
 21
0.0
 31
0.0
  0
LINE
  5
70
100
AcDbEntity
  8
A-DIMS
347
0
370
     0
430

440
        0
390
0
284
     0
100
AcDbLine
 10
0.0
 20
4.0
 30
0.0
 11
-0.55
 21
4.0
 31
0.0
  0
LINE
  5
71
100
AcDbEntity
  8
A-DIMS
347
0
370
     0
430

440
        0
390
0
284
     0
100
AcDbLine
 10
-0.6
 20
0.0
 30
0.0
 11
-0.6
 21
4.0
 31
0.0
  0
LINE
  5
72
100
AcDbEntity
  8
A-DIMS
347
0
370
     0
430

440
        0
390
0
284
     0
100
AcDbLine
 10
-0.65
 20
-0.05
 30
0.0
 11
-0.55
 21
0.05
 31
0.0
  0
LINE
  5
73
100
AcDbEntity
  8
A-DIMS
347
0
370
     0
430

440
        0
390
0
284
     0
100
AcDbLine
 10
-0.65
 20
3.95
 30
0.0
 11
-0.55
 21
4.05
 31
0.0
  0
TEXT
  5
74
100
AcDbEntity
  8
A-DIMS
347
0
370
     0
430

440
        0
390
0
284
     0
100
AcDbText
 10
-0.55
 20
2.0
 30
0.0
 40
0.1
  1
4.00m
 50
90.0
100
AcDbText
  0
LINE
  5
75
100
AcDbEntity
  8
A-DIMS
347
0
370
     0
430

440
        0
390
0
284
     0
100
AcDbLine
 10
0.0
 20
0.0
 30
0.0
 11
-0.25
 21
0.0
 31
0.0
  0
LINE
  5
76
100
AcDbEntity
  8
A-DIMS
347
0
370
     0
430

440
        0
390
0
284
     0
100
AcDbLine
 10
0.0
 20
1.0
 30
0.0
 11
-0.25
 21
1.0
 31
0.0
  0
LINE
  5
77
100
AcDbEntity
  8
A-DIMS
347
0
370
     0
430

440
        0
390
0
284
     0
100
AcDbLine
 10
-0.3
 20
0.0
 30
0.0
 11
-0.3
 21
1.0
 31
0.0
  0
LINE
  5
78
100
AcDbEntity
  8
A-DIMS
347
0
370
     0
430

440
        0
390
0
284
     0
100
AcDbLine
 10
-0.35
 20
-0.05
 30
0.0
 11
-0.25
 21
0.05
 31
0.0
  0
LINE
  5
79
100
AcDbEntity
  8
A-DIMS
347
0
370
     0
430

440
        0
390
0
284
     0
100
AcDbLine
 10
-0.35
 20
0.95
 30
0.0
 11
-0.25
 21
1.05
 31
0.0
  0
TEXT
  5
7A
100
AcDbEntity
  8
A-DIMS
347
0
370
     0
430

440
        0
390
0
284
     0
100
AcDbText
 10
-0.25
 20
0.5
 30
0.0
 40
0.1
  1
1.00m
 50
90.0
100
AcDbText
  0
LINE
  5
7B
100
AcDbEntity
  8
A-DIMS
347
0
370
     0
430

440
        0
390
0
284
     0
100
AcDbLine
 10
0.0
 20
1.0
 30
0.0
 11
-0.25
 21
1.0
 31
0.0
  0
LINE
  5
7C
100
AcDbEntity
  8
A-DIMS
347
0
370
     0
430

440
        0
390
0
284
     0
100
AcDbLine
 10
0.0
 20
4.0
 30
0.0
 11
-0.25
 21
4.0
 31
0.0
  0
LINE
  5
7D
100
AcDbEntity
  8
A-DIMS
347
0
370
     0
430

440
        0
390
0
284
     0
100
AcDbLine
 10
-0.3
 20
1.0
 30
0.0
 11
-0.3
 21
4.0
 31
0.0
  0
LINE
  5
7E
100
AcDbEntity
  8
A-DIMS
347
0
370
     0
430

440
        0
390
0
284
     0
100
AcDbLine
 10
-0.35
 20
0.95
 30
0.0
 11
-0.25
 21
1.05
 31
0.0
  0
LINE
  5
7F
100
AcDbEntity
  8
A-DIMS
347
0
370
     0
430

440
        0
390
0
284
     0
100
AcDbLine
 10
-0.35
 20
3.95
 30
0.0
 11
-0.25
 21
4.05
 31
0.0
  0
TEXT
  5
80
100
AcDbEntity
  8
A-DIMS
347
0
370
     0
430

440
        0
390
0
284
     0
100
AcDbText
 10
-0.25
 20
2.5
 30
0.0
 40
0.1
  1
3.00m
 50
90.0
100
AcDbText
  0
TEXT
  5
81
100
AcDbEntity
  8
A-ANNO
347
0
370
     0
430

440
        0
390
0
284
     0
100
AcDbText
 10
-0.9
 20
2.0
 30
0.0
 40
0.08
  1
WALLS: 150mm
 50
90.0
100
AcDbText
  0
LINE
  5
82
100
AcDbEntity
  8
A-ANNO
347
0
370
     0
430

440
        0
390
0
284
     0
100
AcDbLine
 10
-1.0
 20
4.5
 30
0.0
 11
-1.0
 21
5.0
 31
0.0
  0
LWPOLYLINE
  5
83
100
AcDbEntity
  8
A-ANNO
347
0
370
     0
430

440
        0
390
0
284
     0
100
AcDbPolyline
 90
        5
 70
     0
 10
-1.0
 20
5.0
 91
        0
 10
-1.1
 20
4.85
 91
        0
 10
-1.0
 20
4.9
 91
        0
 10
-0.9
 20
4.85
 91
        0
 10
-1.0
 20
5.0
 91
        0
  0
TEXT
  5
84
100
AcDbEntity
  8
A-ANNO
347
0
370
     0
430

440
        0
390
0
284
     0
100
AcDbText
 10
-1.05
 20
5.1
 30
0.0
 40
0.15
  1
N
100
AcDbText
  0
LWPOLYLINE
  5
85
100
AcDbEntity
  8
A-ANNO-TTLB
347
0
370
     0
430

440
        0
390
0
284
     0
100
AcDbPolyline
 90
        5
 70
     0
 10
4.61
 20
-3.0
 91
        0
 10
8.61
 20
-3.0
 91
        0
 10
8.61
 20
-1.5
 91
        0
 10
4.61
 20
-1.5
 91
        0
 10
4.61
 20
-3.0
 91
        0
  0
LINE
  5
86
100
AcDbEntity
  8
A-ANNO-TTLB
347
0
370
     0
430

440
        0
390
0
284
     0
100
AcDbLine
 10
4.61
 20
-2.25
 30
0.0
 11
8.61
 21
-2.25
 31
0.0
  0
LINE
  5
87
100
AcDbEntity
  8
A-ANNO-TTLB
347
0
370
     0
430

440
        0
390
0
284
     0
100
AcDbLine
 10
4.61
 20
-2.625
 30
0.0
 11
8.61
 21
-2.625
 31
0.0
  0
TEXT
  5
88
100
AcDbEntity
  8
A-ANNO-TTLB
347
0
370
     0
430

440
        0
390
0
284
     0
100
AcDbText
 10
4.81
 20
-1.95
 30
0.0
 40
0.25
  1
SAUNA BUILDING
100
AcDbText
  0
TEXT
  5
89
100
AcDbEntity
  8
A-ANNO-TTLB
347
0
370
     0
430

440
        0
390
0
284
     0
100
AcDbText
 10
4.81
 20
-2.475
 30
0.0
 40
0.15
  1
FLOOR PLAN & ELEVATIONS
100
AcDbText
  0
TEXT
  5
8A
100
AcDbEntity
  8
A-ANNO-TTLB
347
0
370
     0
430

440
        0
390
0
284
     0
100
AcDbText
 10
4.81
 20
-2.85
 30
0.0
 40
0.1
  1
SCALE: 1:50
100
AcDbText
  0
TEXT
  5
8B
100
AcDbEntity
  8
A-ANNO-TTLB
347
0
370
     0
430

440
        0
390
0
284
     0
100
AcDbText
 10
6.61
 20
-2.85
 30
0.0
 40
0.1
  1
DATE: 2026-01-03
100
AcDbText
  0
LWPOLYLINE
  5
8C
100
AcDbEntity
  8
A-ANNO-TTLB
347
0
370
     0
430

440
        0
390
0
284
     0
100
AcDbPolyline
 90
        5
 70
     0
 10
-2.0
 20
-3.5
 91
        0
 10
9.61
 20
-3.5
 91
        0
 10
9.61
 20
5.5
 91
        0
 10
-2.0
 20
5.5
 91
        0
 10
-2.0
 20
-3.5
 91
        0
  0
LINE
  5
8D
100
AcDbEntity
  8
A-ELEV
347
0
370
     0
430

440
        0
390
0
284
     0
100
AcDbLine
 10
10.11
 20
1.0
 30
0.0
 11
19.72
 21
1.0
 31
0.0
  0
LWPOLYLINE
  5
8E
100
AcDbEntity
  8
A-DECK
347
0
370
     0
430

440
        0
390
0
284
     0
100
AcDbPolyline
 90
        4
 70
     0
 10
10.61
 20
1.0
 91
        0
 10
10.61
 20
1.4
 91
        0
 10
19.22
 20
1.4
 91
        0
 10
19.22
 20
1.0
 91
        0
  0
LWPOLYLINE
  5
8F
100
AcDbEntity
  8
A-WALL
347
0
370
     0
430

440
        0
390
0
284
     0
100
AcDbPolyline
 90
        5
 70
     0
 10
10.61
 20
1.4
 91
        0
 10
10.61
 20
3.9
 91
        0
 10
15.57
 20
3.9
 91
        0
 10
15.57
 20
1.4
 91
        0
 10
10.61
 20
1.4
 91
        0
  0
LWPOLYLINE
  5
90
100
AcDbEntity
  8
A-WALL
347
0
370
     0
430

440
        0
390
0
284
     0
100
AcDbPolyline
 90
        5
 70
     0
 10
15.57
 20
1.4
 91
        0
 10
15.57
 20
3.9
 91
        0
 10
15.72
 20
3.9
 91
        0
 10
15.72
 20
1.4
 91
        0
 10
15.57
 20
1.4
 91
        0
  0
LWPOLYLINE
  5
91
100
AcDbEntity
  8
A-WALL
347
0
370
     0
430

440
        0
390
0
284
     0
100
AcDbPolyline
 90
        5
 70
     0
 10
18.92
 20
1.4
 91
        0
 10
18.92
 20
3.9
 91
        0
 10
19.07
 20
3.9
 91
        0
 10
19.07
 20
1.4
 91
        0
 10
18.92
 20
1.4
 91
        0
  0
LWPOLYLINE
  5
92
100
AcDbEntity
  8
A-ROOF
347
0
370
     0
430

440
        0
390
0
284
     0
100
AcDbPolyline
 90
        5
 70
     0
 10
10.31
 20
3.9
 91
        0
 10
10.31
 20
4.1
 91
        0
 10
19.52
 20
4.1
 91
        0
 10
19.52
 20
3.9
 91
        0
 10
10.31
 20
3.9
 91
        0
  0
LWPOLYLINE
  5
93
100
AcDbEntity
  8
A-DOOR
347
0
370
     0
430

440
        0
390
0
284
     0
100
AcDbPolyline
 90
        4
 70
     0
 10
13.07
 20
1.4
 91
        0
 10
13.07
 20
3.5
 91
        0
 10
13.87
 20
3.5
 91
        0
 10
13.87
 20
1.4
 91
        0
  0
LWPOLYLINE
  5
94
100
AcDbEntity
  8
A-GLAZ
347
0
370
     0
430

440
        0
390
0
284
     0
100
AcDbPolyline
 90
        5
 70
     0
 10
11.44
 20
2.4
 91
        0
 10
11.44
 20
3.2
 91
        0
 10
12.04
 20
3.2
 91
        0
 10
12.04
 20
2.4
 91
        0
 10
11.44
 20
2.4
 91
        0
  0
LINE
  5
95
100
AcDbEntity
  8
A-DIMS
347
0
370
     0
430

440
        0
390
0
284
     0
100
AcDbLine
 10
10.61
 20
4.1
 30
0.0
 11
10.61
 21
4.45
 31
0.0
  0
LINE
  5
96
100
AcDbEntity
  8
A-DIMS
347
0
370
     0
430

440
        0
390
0
284
     0
100
AcDbLine
 10
19.22
 20
4.1
 30
0.0
 11
19.22
 21
4.45
 31
0.0
  0
LINE
  5
97
100
AcDbEntity
  8
A-DIMS
347
0
370
     0
430

440
        0
390
0
284
     0
100
AcDbLine
 10
10.61
 20
4.4
 30
0.0
 11
19.22
 21
4.4
 31
0.0
  0
LINE
  5
98
100
AcDbEntity
  8
A-DIMS
347
0
370
     0
430

440
        0
390
0
284
     0
100
AcDbLine
 10
10.56
 20
4.35
 30
0.0
 11
10.66
 21
4.45
 31
0.0
  0
LINE
  5
99
100
AcDbEntity
  8
A-DIMS
347
0
370
     0
430

440
        0
390
0
284
     0
100
AcDbLine
 10
19.17
 20
4.35
 30
0.0
 11
19.27
 21
4.45
 31
0.0
  0
TEXT
  5
9A
100
AcDbEntity
  8
A-DIMS
347
0
370
     0
430

440
        0
390
0
284
     0
100
AcDbText
 10
14.915
 20
4.45
 30
0.0
 40
0.1
  1
8.61m
100
AcDbText
  0
LINE
  5
9B
100
AcDbEntity
  8
A-DIMS
347
0
370
     0
430

440
        0
390
0
284
     0
100
AcDbLine
 10
19.22
 20
1.0
 30
0.0
 11
19.57
 21
1.0
 31
0.0
  0
LINE
  5
9C
100
AcDbEntity
  8
A-DIMS
347
0
370
     0
430

440
        0
390
0
284
     0
100
AcDbLine
 10
19.22
 20
1.4
 30
0.0
 11
19.57
 21
1.4
 31
0.0
  0
LINE
  5
9D
100
AcDbEntity
  8
A-DIMS
347
0
370
     0
430

440
        0
390
0
284
     0
100
AcDbLine
 10
19.52
 20
1.0
 30
0.0
 11
19.52
 21
1.4
 31
0.0
  0
LINE
  5
9E
100
AcDbEntity
  8
A-DIMS
347
0
370
     0
430

440
        0
390
0
284
     0
100
AcDbLine
 10
19.47
 20
0.95
 30
0.0
 11
19.57
 21
1.05
 31
0.0
  0
LINE
  5
9F
100
AcDbEntity
  8
A-DIMS
347
0
370
     0
430

440
        0
390
0
284
     0
100
AcDbLine
 10
19.47
 20
1.35
 30
0.0
 11
19.57
 21
1.45
 31
0.0
  0
TEXT
  5
A0
100
AcDbEntity
  8
A-DIMS
347
0
370
     0
430

440
        0
390
0
284
     0
100
AcDbText
 10
19.57
 20
1.2
 30
0.0
 40
0.1
  1
0.40m
 50
90.0
100
AcDbText
  0
LINE
  5
A1
100
AcDbEntity
  8
A-DIMS
347
0
370
     0
430

440
        0
390
0
284
     0
100
AcDbLine
 10
19.22
 20
1.4
 30
0.0
 11
19.77
 21
1.4
 31
0.0
  0
LINE
  5
A2
100
AcDbEntity
  8
A-DIMS
347
0
370
     0
430

440
        0
390
0
284
     0
100
AcDbLine
 10
19.22
 20
3.9
 30
0.0
 11
19.77
 21
3.9
 31
0.0
  0
LINE
  5
A3
100
AcDbEntity
  8
A-DIMS
347
0
370
     0
430

440
        0
390
0
284
     0
100
AcDbLine
 10
19.72
 20
1.4
 30
0.0
 11
19.72
 21
3.9
 31
0.0
  0
LINE
  5
A4
100
AcDbEntity
  8
A-DIMS
347
0
370
     0
430

440
        0
390
0
284
     0
100
AcDbLine
 10
19.67
 20
1.35
 30
0.0
 11
19.77
 21
1.45
 31
0.0
  0
LINE
  5
A5
100
AcDbEntity
  8
A-DIMS
347
0
370
     0
430

440
        0
390
0
284
     0
100
AcDbLine
 10
19.67
 20
3.85
 30
0.0
 11
19.77
 21
3.95
 31
0.0
  0
TEXT
  5
A6
100
AcDbEntity
  8
A-DIMS
347
0
370
     0
430

440
        0
390
0
284
     0
100
AcDbText
 10
19.77
 20
2.65
 30
0.0
 40
0.1
  1
2.50m
 50
90.0
100
AcDbText
  0
TEXT
  5
A7
100
AcDbEntity
  8
A-TEXT
347
0
370
     0
430

440
        0
390
0
284
     0
100
AcDbText
 10
11.11
 20
4.6
 30
0.0
 40
0.15
  1
FRONT ELEVATION
100
AcDbText
  0
LWPOLYLINE
  5
A8
100
AcDbEntity
  8
A-ROOF
347
0
370
     0
430

440
        0
390
0
284
     0
100
AcDbPolyline
 90
        5
 70
     0
 10
10.31
 20
-4.3
 91
        0
 10
19.52
 20
-4.3
 91
        0
 10
19.52
 20
-0.7
 91
        0
 10
10.31
 20
-0.7
 91
        0
 10
10.31
 20
-4.3
 91
        0
  0
LWPOLYLINE
  5
A9
100
AcDbEntity
  8
A-WALL
347
0
370
     0
430

440
        0
390
0
284
     0
100
AcDbPolyline
 90
        5
 70
     0
 10
10.61
 20
-4.0
 91
        0
 10
19.22
 20
-4.0
 91
        0
 10
19.22
 20
-1.0
 91
        0
 10
10.61
 20
-1.0
 91
        0
 10
10.61
 20
-4.0
 91
        0
  0
LWPOLYLINE
  5
AA
100
AcDbEntity
  8
A-WALL-INTR
347
0
370
     0
430

440
        0
390
0
284
     0
100
AcDbPolyline
 90
        5
 70
     0
 10
10.61
 20
-4.0
 91
        0
 10
15.57
 20
-4.0
 91
        0
 10
15.57
 20
-1.0
 91
        0
 10
10.61
 20
-1.0
 91
        0
 10
10.61
 20
-4.0
 91
        0
  0
CIRCLE
  5
AB
100
AcDbEntity
  8
A-FIXT
347
0
370
     0
430

440
        0
390
0
284
     0
100
AcDbCircle
 10
11.11
 20
-2.5
 30
0.0
 40
0.15
  0
LINE
  5
AC
100
AcDbEntity
  8
A-DIMS
347
0
370
     0
430

440
        0
390
0
284
     0
100
AcDbLine
 10
10.31
 20
-0.7
 30
0.0
 11
10.31
 21
-0.35
 31
0.0
  0
LINE
  5
AD
100
AcDbEntity
  8
A-DIMS
347
0
370
     0
430

440
        0
390
0
284
     0
100
AcDbLine
 10
19.52
 20
-0.7
 30
0.0
 11
19.52
 21
-0.35
 31
0.0
  0
LINE
  5
AE
100
AcDbEntity
  8
A-DIMS
347
0
370
     0
430

440
        0
390
0
284
     0
100
AcDbLine
 10
10.31
 20
-0.4
 30
0.0
 11
19.52
 21
-0.4
 31
0.0
  0
LINE
  5
AF
100
AcDbEntity
  8
A-DIMS
347
0
370
     0
430

440
        0
390
0
284
     0
100
AcDbLine
 10
10.26
 20
-0.45
 30
0.0
 11
10.36
 21
-0.35
 31
0.0
  0
LINE
  5
B0
100
AcDbEntity
  8
A-DIMS
347
0
370
     0
430

440
        0
390
0
284
     0
100
AcDbLine
 10
19.47
 20
-0.45
 30
0.0
 11
19.57
 21
-0.35
 31
0.0
  0
TEXT
  5
B1
100
AcDbEntity
  8
A-DIMS
347
0
370
     0
430

440
        0
390
0
284
     0
100
AcDbText
 10
14.915
 20
-0.35
 30
0.0
 40
0.1
  1
9.21m
100
AcDbText
  0
LINE
  5
B2
100
AcDbEntity
  8
A-DIMS
347
0
370
     0
430

440
        0
390
0
284
     0
100
AcDbLine
 10
19.52
 20
-4.3
 30
0.0
 11
19.87
 21
-4.3
 31
0.0
  0
LINE
  5
B3
100
AcDbEntity
  8
A-DIMS
347
0
370
     0
430

440
        0
390
0
284
     0
100
AcDbLine
 10
19.52
 20
-0.7
 30
0.0
 11
19.87
 21
-0.7
 31
0.0
  0
LINE
  5
B4
100
AcDbEntity
  8
A-DIMS
347
0
370
     0
430

440
        0
390
0
284
     0
100
AcDbLine
 10
19.82
 20
-4.3
 30
0.0
 11
19.82
 21
-0.7
 31
0.0
  0
LINE
  5
B5
100
AcDbEntity
  8
A-DIMS
347
0
370
     0
430

440
        0
390
0
284
     0
100
AcDbLine
 10
19.77
 20
-4.35
 30
0.0
 11
19.87
 21
-4.25
 31
0.0
  0
LINE
  5
B6
100
AcDbEntity
  8
A-DIMS
347
0
370
     0
430

440
        0
390
0
284
     0
100
AcDbLine
 10
19.77
 20
-0.75
 30
0.0
 11
19.87
 21
-0.65
 31
0.0
  0
TEXT
  5
B7
100
AcDbEntity
  8
A-DIMS
347
0
370
     0
430

440
        0
390
0
284
     0
100
AcDbText
 10
19.87
 20
-2.5
 30
0.0
 40
0.1
  1
3.60m
 50
90.0
100
AcDbText
  0
TEXT
  5
B8
100
AcDbEntity
  8
A-TEXT
347
0
370
     0
430

440
        0
390
0
284
     0
100
AcDbText
 10
11.61
 20
-0.2
 30
0.0
 40
0.15
  1
ROOF PLAN
100
AcDbText
  0
LINE
  5
B9
100
AcDbEntity
  8
A-ELEV
347
0
370
     0
430

440
        0
390
0
284
     0
100
AcDbLine
 10
15.11
 20
1.0
 30
0.0
 11
20.11
 21
1.0
 31
0.0
  0
LWPOLYLINE
  5
BA
100
AcDbEntity
  8
A-DECK
347
0
370
     0
430

440
        0
390
0
284
     0
100
AcDbPolyline
 90
        4
 70
     0
 10
14.61
 20
1.0
 91
        0
 10
14.61
 20
1.4
 91
        0
 10
18.61
 20
1.4
 91
        0
 10
18.61
 20
1.0
 91
        0
  0
LWPOLYLINE
  5
BB
100
AcDbEntity
  8
A-WALL
347
0
370
     0
430

440
        0
390
0
284
     0
100
AcDbPolyline
 90
        5
 70
     0
 10
15.61
 20
1.4
 91
        0
 10
15.61
 20
3.9
 91
        0
 10
18.61
 20
3.9
 91
        0
 10
18.61
 20
1.4
 91
        0
 10
15.61
 20
1.4
 91
        0
  0
LWPOLYLINE
  5
BC
100
AcDbEntity
  8
A-ROOF
347
0
370
     0
430

440
        0
390
0
284
     0
100
AcDbPolyline
 90
        5
 70
     0
 10
15.31
 20
3.9
 91
        0
 10
15.31
 20
4.1
 91
        0
 10
18.91
 20
4.1
 91
        0
 10
18.91
 20
3.9
 91
        0
 10
15.31
 20
3.9
 91
        0
  0
LWPOLYLINE
  5
BD
100
AcDbEntity
  8
A-GLAZ
347
0
370
     0
430

440
        0
390
0
284
     0
100
AcDbPolyline
 90
        5
 70
     0
 10
18.41
 20
2.4
 91
        0
 10
18.41
 20
3.2
 91
        0
 10
18.61
 20
3.2
 91
        0
 10
18.61
 20
2.4
 91
        0
 10
18.41
 20
2.4
 91
        0
  0
LINE
  5
BE
100
AcDbEntity
  8
A-DIMS
347
0
370
     0
430

440
        0
390
0
284
     0
100
AcDbLine
 10
15.61
 20
4.1
 30
0.0
 11
15.61
 21
4.45
 31
0.0
  0
LINE
  5
BF
100
AcDbEntity
  8
A-DIMS
347
0
370
     0
430

440
        0
390
0
284
     0
100
AcDbLine
 10
18.61
 20
4.1
 30
0.0
 11
18.61
 21
4.45
 31
0.0
  0
LINE
  5
C0
100
AcDbEntity
  8
A-DIMS
347
0
370
     0
430

440
        0
390
0
284
     0
100
AcDbLine
 10
15.61
 20
4.4
 30
0.0
 11
18.61
 21
4.4
 31
0.0
  0
LINE
  5
C1
100
AcDbEntity
  8
A-DIMS
347
0
370
     0
430

440
        0
390
0
284
     0
100
AcDbLine
 10
15.56
 20
4.35
 30
0.0
 11
15.66
 21
4.45
 31
0.0
  0
LINE
  5
C2
100
AcDbEntity
  8
A-DIMS
347
0
370
     0
430

440
        0
390
0
284
     0
100
AcDbLine
 10
18.56
 20
4.35
 30
0.0
 11
18.66
 21
4.45
 31
0.0
  0
TEXT
  5
C3
100
AcDbEntity
  8
A-DIMS
347
0
370
     0
430

440
        0
390
0
284
     0
100
AcDbText
 10
17.11
 20
4.45
 30
0.0
 40
0.1
  1
3.00m
100
AcDbText
  0
LINE
  5
C4
100
AcDbEntity
  8
A-DIMS
347
0
370
     0
430

440
        0
390
0
284
     0
100
AcDbLine
 10
18.61
 20
1.0
 30
0.0
 11
18.96
 21
1.0
 31
0.0
  0
LINE
  5
C5
100
AcDbEntity
  8
A-DIMS
347
0
370
     0
430

440
        0
390
0
284
     0
100
AcDbLine
 10
18.61
 20
4.1
 30
0.0
 11
18.96
 21
4.1
 31
0.0
  0
LINE
  5
C6
100
AcDbEntity
  8
A-DIMS
347
0
370
     0
430

440
        0
390
0
284
     0
100
AcDbLine
 10
18.91
 20
1.0
 30
0.0
 11
18.91
 21
4.1
 31
0.0
  0
LINE
  5
C7
100
AcDbEntity
  8
A-DIMS
347
0
370
     0
430

440
        0
390
0
284
     0
100
AcDbLine
 10
18.86
 20
0.95
 30
0.0
 11
18.96
 21
1.05
 31
0.0
  0
LINE
  5
C8
100
AcDbEntity
  8
A-DIMS
347
0
370
     0
430

440
        0
390
0
284
     0
100
AcDbLine
 10
18.86
 20
4.05
 30
0.0
 11
18.96
 21
4.15
 31
0.0
  0
TEXT
  5
C9
100
AcDbEntity
  8
A-DIMS
347
0
370
     0
430

440
        0
390
0
284
     0
100
AcDbText
 10
18.96
 20
2.55
 30
0.0
 40
0.1
  1
3.10m
 50
90.0
100
AcDbText
  0
TEXT
  5
CA
100
AcDbEntity
  8
A-TEXT
347
0
370
     0
430

440
        0
390
0
284
     0
100
AcDbText
 10
15.81
 20
4.6
 30
0.0
 40
0.15
  1
SIDE ELEVATION
100
AcDbText
  0
LINE
  5
CB
100
AcDbEntity
  8
A-SECT
347
0
370
     0
430

440
        0
390
0
284
     0
100
AcDbLine
 10
18.11
 20
1.0
 30
0.0
 11
21.37
 21
1.0
 31
0.0
  0
LWPOLYLINE
  5
CC
100
AcDbEntity
  8
A-DECK
347
0
370
     0
430

440
        0
390
0
284
     0
100
AcDbPolyline
 90
        4
 70
     0
 10
18.31
 20
1.0
 91
        0
 10
18.31
 20
1.4
 91
        0
 10
21.17
 20
1.4
 91
        0
 10
21.17
 20
1.0
 91
        0
  0
LWPOLYLINE
  5
CD
100
AcDbEntity
  8
A-SECT
347
0
370
     0
430

440
        0
390
0
284
     0
100
AcDbPolyline
 90
        5
 70
     0
 10
18.61
 20
1.4
 91
        0
 10
18.61
 20
3.9
 91
        0
 10
18.76
 20
3.9
 91
        0
 10
18.76
 20
1.4
 91
        0
 10
18.61
 20
1.4
 91
        0
  0
LWPOLYLINE
  5
CE
100
AcDbEntity
  8
A-SECT
347
0
370
     0
430

440
        0
390
0
284
     0
100
AcDbPolyline
 90
        5
 70
     0
 10
20.72
 20
1.4
 91
        0
 10
20.72
 20
3.9
 91
        0
 10
20.87
 20
3.9
 91
        0
 10
20.87
 20
1.4
 91
        0
 10
20.72
 20
1.4
 91
        0
  0
LWPOLYLINE
  5
CF
100
AcDbEntity
  8
A-FIXT
347
0
370
     0
430

440
        0
390
0
284
     0
100
AcDbPolyline
 90
        5
 70
     0
 10
18.86
 20
1.85
 91
        0
 10
19.46
 20
1.85
 91
        0
 10
19.46
 20
1.9
 91
        0
 10
18.86
 20
1.9
 91
        0
 10
18.86
 20
1.85
 91
        0
  0
LWPOLYLINE
  5
D0
100
AcDbEntity
  8
A-FIXT
347
0
370
     0
430

440
        0
390
0
284
     0
100
AcDbPolyline
 90
        5
 70
     0
 10
18.86
 20
2.3
 91
        0
 10
19.46
 20
2.3
 91
        0
 10
19.46
 20
2.35
 91
        0
 10
18.86
 20
2.35
 91
        0
 10
18.86
 20
2.3
 91
        0
  0
LWPOLYLINE
  5
D1
100
AcDbEntity
  8
A-FIXT
347
0
370
     0
430

440
        0
390
0
284
     0
100
AcDbPolyline
 90
        5
 70
     0
 10
20.12
 20
1.4
 91
        0
 10
20.12
 20
2.1
 91
        0
 10
20.42
 20
2.1
 91
        0
 10
20.42
 20
1.4
 91
        0
 10
20.12
 20
1.4
 91
        0
  0
LWPOLYLINE
  5
D2
100
AcDbEntity
  8
A-ROOF
347
0
370
     0
430

440
        0
390
0
284
     0
100
AcDbPolyline
 90
        5
 70
     0
 10
18.31
 20
3.9
 91
        0
 10
18.31
 20
4.1
 91
        0
 10
21.17
 20
4.1
 91
        0
 10
21.17
 20
3.9
 91
        0
 10
18.31
 20
3.9
 91
        0
  0
LINE
  5
D3
100
AcDbEntity
  8
A-SECT
347
0
370
     0
430

440
        0
390
0
284
     0
100
AcDbLine
 10
18.76
 20
3.9
 30
0.0
 11
20.72
 21
3.9
 31
0.0
  0
LINE
  5
D4
100
AcDbEntity
  8
A-DIMS
347
0
370
     0
430

440
        0
390
0
284
     0
100
AcDbLine
 10
18.61
 20
4.1
 30
0.0
 11
18.61
 21
4.45
 31
0.0
  0
LINE
  5
D5
100
AcDbEntity
  8
A-DIMS
347
0
370
     0
430

440
        0
390
0
284
     0
100
AcDbLine
 10
20.87
 20
4.1
 30
0.0
 11
20.87
 21
4.45
 31
0.0
  0
LINE
  5
D6
100
AcDbEntity
  8
A-DIMS
347
0
370
     0
430

440
        0
390
0
284
     0
100
AcDbLine
 10
18.61
 20
4.4
 30
0.0
 11
20.87
 21
4.4
 31
0.0
  0
LINE
  5
D7
100
AcDbEntity
  8
A-DIMS
347
0
370
     0
430

440
        0
390
0
284
     0
100
AcDbLine
 10
18.56
 20
4.35
 30
0.0
 11
18.66
 21
4.45
 31
0.0
  0
LINE
  5
D8
100
AcDbEntity
  8
A-DIMS
347
0
370
     0
430

440
        0
390
0
284
     0
100
AcDbLine
 10
20.82
 20
4.35
 30
0.0
 11
20.92
 21
4.45
 31
0.0
  0
TEXT
  5
D9
100
AcDbEntity
  8
A-DIMS
347
0
370
     0
430

440
        0
390
0
284
     0
100
AcDbText
 10
19.74
 20
4.45
 30
0.0
 40
0.1
  1
2.26m
100
AcDbText
  0
LINE
  5
DA
100
AcDbEntity
  8
A-DIMS
347
0
370
     0
430

440
        0
390
0
284
     0
100
AcDbLine
 10
18.11
 20
1.4
 30
0.0
 11
17.96
 21
1.4
 31
0.0
  0
LINE
  5
DB
100
AcDbEntity
  8
A-DIMS
347
0
370
     0
430

440
        0
390
0
284
     0
100
AcDbLine
 10
18.11
 20
1.85
 30
0.0
 11
17.96
 21
1.85
 31
0.0
  0
LINE
  5
DC
100
AcDbEntity
  8
A-DIMS
347
0
370
     0
430

440
        0
390
0
284
     0
100
AcDbLine
 10
17.91
 20
1.4
 30
0.0
 11
17.91
 21
1.85
 31
0.0
  0
LINE
  5
DD
100
AcDbEntity
  8
A-DIMS
347
0
370
     0
430

440
        0
390
0
284
     0
100
AcDbLine
 10
17.86
 20
1.35
 30
0.0
 11
17.96
 21
1.45
 31
0.0
  0
LINE
  5
DE
100
AcDbEntity
  8
A-DIMS
347
0
370
     0
430

440
        0
390
0
284
     0
100
AcDbLine
 10
17.86
 20
1.8
 30
0.0
 11
17.96
 21
1.9
 31
0.0
  0
TEXT
  5
DF
100
AcDbEntity
  8
A-DIMS
347
0
370
     0
430

440
        0
390
0
284
     0
100
AcDbText
 10
17.96
 20
1.625
 30
0.0
 40
0.1
  1
0.45m
 50
90.0
100
AcDbText
  0
LINE
  5
E0
100
AcDbEntity
  8
A-DIMS
347
0
370
     0
430

440
        0
390
0
284
     0
100
AcDbLine
 10
18.11
 20
1.4
 30
0.0
 11
17.76
 21
1.4
 31
0.0
  0
LINE
  5
E1
100
AcDbEntity
  8
A-DIMS
347
0
370
     0
430

440
        0
390
0
284
     0
100
AcDbLine
 10
18.11
 20
2.3
 30
0.0
 11
17.76
 21
2.3
 31
0.0
  0
LINE
  5
E2
100
AcDbEntity
  8
A-DIMS
347
0
370
     0
430

440
        0
390
0
284
     0
100
AcDbLine
 10
17.71
 20
1.4
 30
0.0
 11
17.71
 21
2.3
 31
0.0
  0
LINE
  5
E3
100
AcDbEntity
  8
A-DIMS
347
0
370
     0
430

440
        0
390
0
284
     0
100
AcDbLine
 10
17.66
 20
1.35
 30
0.0
 11
17.76
 21
1.45
 31
0.0
  0
LINE
  5
E4
100
AcDbEntity
  8
A-DIMS
347
0
370
     0
430

440
        0
390
0
284
     0
100
AcDbLine
 10
17.66
 20
2.25
 30
0.0
 11
17.76
 21
2.35
 31
0.0
  0
TEXT
  5
E5
100
AcDbEntity
  8
A-DIMS
347
0
370
     0
430

440
        0
390
0
284
     0
100
AcDbText
 10
17.76
 20
1.85
 30
0.0
 40
0.1
  1
0.90m
 50
90.0
100
AcDbText
  0
LINE
  5
E6
100
AcDbEntity
  8
A-DIMS
347
0
370
     0
430

440
        0
390
0
284
     0
100
AcDbLine
 10
20.87
 20
1.4
 30
0.0
 11
21.22
 21
1.4
 31
0.0
  0
LINE
  5
E7
100
AcDbEntity
  8
A-DIMS
347
0
370
     0
430

440
        0
390
0
284
     0
100
AcDbLine
 10
20.87
 20
3.9
 30
0.0
 11
21.22
 21
3.9
 31
0.0
  0
LINE
  5
E8
100
AcDbEntity
  8
A-DIMS
347
0
370
     0
430

440
        0
390
0
284
     0
100
AcDbLine
 10
21.17
 20
1.4
 30
0.0
 11
21.17
 21
3.9
 31
0.0
  0
LINE
  5
E9
100
AcDbEntity
  8
A-DIMS
347
0
370
     0
430

440
        0
390
0
284
     0
100
AcDbLine
 10
21.12
 20
1.35
 30
0.0
 11
21.22
 21
1.45
 31
0.0
  0
LINE
  5
EA
100
AcDbEntity
  8
A-DIMS
347
0
370
     0
430

440
        0
390
0
284
     0
100
AcDbLine
 10
21.12
 20
3.85
 30
0.0
 11
21.22
 21
3.95
 31
0.0
  0
TEXT
  5
EB
100
AcDbEntity
  8
A-DIMS
347
0
370
     0
430

440
        0
390
0
284
     0
100
AcDbText
 10
21.22
 20
2.65
 30
0.0
 40
0.1
  1
2.50m
 50
90.0
100
AcDbText
  0
TEXT
  5
EC
100
AcDbEntity
  8
A-TEXT
347
0
370
     0
430

440
        0
390
0
284
     0
100
AcDbText
 10
18.91
 20
4.6
 30
0.0
 40
0.15
  1
SECTION A-A
100
AcDbText
  0
ENDSEC
  0
SECTION
  2
OBJECTS
  0
ENDSEC
  0
EOF
