  0
SECTION
  2
HEADER
  9
$ACADVER
  1
AC1027
  9
$ACADMAINTVER
 70
     0
  9
$DWGCODEPAGE
  3
ANSI_1252
  9
$LASTSAVEDBY
  1

  9
$REQUIREDVERSIONS
160
0
  9
$INSBASE
 10
0.0
 20
0.0
 30
0.0
  9
$EXTMIN
 10
0.0
 20
0.0
 30
0.0
  9
$EXTMAX
 10
0.0
 20
0.0
 30
0.0
  9
$LIMMIN
 10
0.0
 20
0.0
  9
$LIMMAX
 10
12.0
 20
9.0
  9
$ORTHOMODE
 70
     0
  9
$REGENMODE
 70
     1
  9
$FILLMODE
 70
     1
  9
$QTEXTMODE
 70
     0
  9
$MIRRTEXT
 70
     0
  9
$LTSCALE
 40
1.0
  9
$ATTMODE
 70
     1
  9
$TEXTSIZE
 40
0.2
  9
$TRACEWID
 40
0.05
  9
$TEXTSTYLE
  7
STANDARD
  9
$CLAYER
  8
0
  9
$CELTYPE
  6
BYLAYER
  9
$CECOLOR
 62
   256
  9
$CELTSCALE
 40
1.0
  9
$DISPSILH
 70
     0
  9
$DIMSCALE
 40
1.0
  9
$DIMASZ
 40
0.18
  9
$DIMEXO
 40
0.0625
  9
$DIMDLI
 40
0.38
  9
$DIMRND
 40
0.0
  9
$DIMDLE
 40
0.0
  9
$DIMEXE
 40
0.18
  9
$DIMTP
 40
0.0
  9
$DIMTM
 40
0.0
  9
$DIMTXT
 40
0.18
  9
$DIMCEN
 40
0.09
  9
$DIMTSZ
 40
0.0
  9
$DIMTOL
 70
     0
  9
$DIMLIM
 70
     0
  9
$DIMTIH
 70
     1
  9
$DIMTOH
 70
     1
  9
$DIMSE1
 70
     0
  9
$DIMSE2
 70
     0
  9
$DIMTAD
 70
     0
  9
$DIMZIN
 70
     0
  9
$DIMBLK
  1

  9
$DIMASO
 70
     1
  9
$DIMSHO
 70
     1
  9
$DIMPOST
  1

  9
$DIMAPOST
  1

  9
$DIMALT
 70
     0
  9
$DIMALTD
 70
     2
  9
$DIMALTF
 40
25.4
  9
$DIMLFAC
 40
1.0
  9
$DIMTOFL
 70
     0
  9
$DIMTVP
 40
0.0
  9
$DIMTIX
 70
     0
  9
$DIMSOXD
 70
     0
  9
$DIMSAH
 70
     0
  9
$DIMBLK1
  1

  9
$DIMBLK2
  1

  9
$DIMSTYLE
  2
STANDARD
  9
$DIMCLRD
 70
     0
  9
$DIMCLRE
 70
     0
  9
$DIMCLRT
 70
     0
  9
$DIMTFAC
 40
1.0
  9
$DIMGAP
 40
0.09
  9
$DIMJUST
 70
     0
  9
$DIMSD1
 70
     0
  9
$DIMSD2
 70
     0
  9
$DIMTOLJ
 70
     1
  9
$DIMTZIN
 70
     0
  9
$DIMALTZ
 70
     0
  9
$DIMALTTZ
 70
     0
  9
$DIMUPT
 70
     0
  9
$DIMDEC
 70
     4
  9
$DIMTDEC
 70
     4
  9
$DIMALTU
 70
     2
  9
$DIMALTTD
 70
     2
  9
$DIMTXSTY
  7
STANDARD
  9
$DIMAUNIT
 70
     0
  9
$DIMADEC
 70
     0
  9
$DIMALTRND
 40
0.0
  9
$DIMAZIN
 70
     0
  9
$DIMDSEP
 70
    46
  9
$DIMATFIT
 70
     0
  9
$DIMFRAC
 70
     0
  9
$DIMLDRBLK
  1

  9
$DIMLUNIT
 70
     2
  9
$DIMLWD
 70
    -2
  9
$DIMLWE
 70
    -2
  9
$DIMTMOVE
 70
     0
  9
$DIMFXL
 40
1.0
  9
$DIMFXLON
 70
     0
  9
$DIMJOGANG
 40
0.785398163397
  9
$DIMTFILL
 70
     0
  9
$DIMTFILLCLR
 70
     0
  9
$DIMARCSYM
 70
     0
  9
$DIMLTYPE
  6
BYLAYER
  9
$DIMLTEX1
  6

  9
$DIMLTEX2
  6

  9
$DIMTXTDIRECTION
 70
     0
  9
$LUNITS
 70
     2
  9
$LUPREC
 70
     4
  9
$SKETCHINC
 40
0.1
  9
$FILLETRAD
 40
0.0
  9
$AUNITS
 70
     0
  9
$AUPREC
 70
     0
  9
$MENU
  1
.
  9
$ELEVATION
 40
0.0
  9
$PELEVATION
 40
0.0
  9
$THICKNESS
 40
0.0
  9
$LIMCHECK
 70
     0
  9
$CHAMFERA
 40
0.0
  9
$CHAMFERB
 40
0.0
  9
$CHAMFERC
 40
0.0
  9
$CHAMFERD
 40
0.0
  9
$SKPOLY
 70
     0
  9
$TDCREATE
 40
2461043.636203703471
  9
$TDUCREATE
 40
2461043.567453703843
  9
$TDUPDATE
 40
2461043.636203703471
  9
$TDUUPDATE
 40
2461043.567453703843
  9
$TDINDWG
 40
0.0
  9
$TDUSRTIMER
 40
0.0
  9
$USRTIMER
 70
     1
  9
$ANGBASE
 50
0.0
  9
$ANGDIR
 70
     0
  9
$PDMODE
 70
     0
  9
$PDSIZE
 40
0.0
  9
$PLINEWID
 40
0.0
  9
$SPLFRAME
 70
     0
  9
$SPLINETYPE
 70
     6
  9
$SPLINESEGS
 70
     8
  9
$HANDSEED
  5
AF
  9
$SURFTAB1
 70
     6
  9
$SURFTAB2
 70
     6
  9
$SURFTYPE
 70
     6
  9
$SURFU
 70
     6
  9
$SURFV
 70
     6
  9
$UCSBASE
  2

  9
$UCSNAME
  2

  9
$UCSORG
 10
0.0
 20
0.0
 30
0.0
  9
$UCSXDIR
 10
1.0
 20
0.0
 30
0.0
  9
$UCSYDIR
 10
0.0
 20
1.0
 30
0.0
  9
$UCSORTHOREF
  2

  9
$UCSORTHOVIEW
 70
     0
  9
$UCSORGTOP
 10
0.0
 20
0.0
 30
0.0
  9
$UCSORGBOTTOM
 10
0.0
 20
0.0
 30
0.0
  9
$UCSORGLEFT
 10
0.0
 20
0.0
 30
0.0
  9
$UCSORGRIGHT
 10
0.0
 20
0.0
 30
0.0
  9
$UCSORGFRONT
 10
0.0
 20
0.0
 30
0.0
  9
$UCSORGBACK
 10
0.0
 20
0.0
 30
0.0
  9
$PUCSBASE
  2

  9
$PUCSNAME
  2

  9
$PUCSORG
 10
0.0
 20
0.0
 30
0.0
  9
$PUCSXDIR
 10
1.0
 20
0.0
 30
0.0
  9
$PUCSYDIR
 10
0.0
 20
1.0
 30
0.0
  9
$PUCSORTHOREF
  2

  9
$PUCSORTHOVIEW
 70
     0
  9
$PUCSORGTOP
 10
0.0
 20
0.0
 30
0.0
  9
$PUCSORGBOTTOM
 10
0.0
 20
0.0
 30
0.0
  9
$PUCSORGLEFT
 10
0.0
 20
0.0
 30
0.0
  9
$PUCSORGRIGHT
 10
0.0
 20
0.0
 30
0.0
  9
$PUCSORGFRONT
 10
0.0
 20
0.0
 30
0.0
  9
$PUCSORGBACK
 10
0.0
 20
0.0
 30
0.0
  9
$USERI1
 70
     0
  9
$USERI2
 70
     0
  9
$USERI3
 70
     0
  9
$USERI4
 70
     0
  9
$USERI5
 70
     0
  9
$USERR1
 40
0.0
  9
$USERR2
 40
0.0
  9
$USERR3
 40
0.0
  9
$USERR4
 40
0.0
  9
$USERR5
 40
0.0
  9
$WORLDVIEW
 70
     1
  9
$SHADEDGE
 70
     3
  9
$SHADEDIF
 70
    70
  9
$TILEMODE
 70
     1
  9
$MAXACTVP
 70
    64
  9
$PINSBASE
 10
0.0
 20
0.0
 30
0.0
  9
$PLIMCHECK
 70
     0
  9
$PEXTMIN
 10
100000000000000000000.0
 20
100000000000000000000.0
 30
100000000000000000000.0
  9
$PEXTMAX
 10
-100000000000000000000.0
 20
-100000000000000000000.0
 30
-100000000000000000000.0
  9
$PLIMMIN
 10
0.0
 20
0.0
  9
$PLIMMAX
 10
12.0
 20
9.0
  9
$UNITMODE
 70
     0
  9
$VISRETAIN
 70
     1
  9
$PLINEGEN
 70
     0
  9
$PSLTSCALE
 70
     1
  9
$TREEDEPTH
 70
  3020
  9
$CMLSTYLE
  2
STANDARD
  9
$CMLJUST
 70
     0
  9
$CMLSCALE
 40
1.0
  9
$PROXYGRAPHICS
 70
     1
  9
$MEASUREMENT
 70
     0
  9
$CELWEIGHT
370
    -1
  9
$ENDCAPS
280
     0
  9
$JOINSTYLE
280
     0
  9
$LWDISPLAY
290
0
  9
$INSUNITS
 70
     0
  9
$HYPERLINKBASE
  1

  9
$STYLESHEET
  1

  9
$XEDIT
290
1
  9
$CEPSNTYPE
380
     0
  9
$PSTYLEMODE
290
1
  9
$FINGERPRINTGUID
  2
9f086b2c-c13b-48cd-aae1-bc300601abd5
  9
$VERSIONGUID
  2
561cc3bd-ba12-46f0-9423-081dcf116746
  9
$EXTNAMES
290
1
  9
$PSVPSCALE
 40
0.0
  9
$OLESTARTUP
290
0
  9
$SORTENTS
280
   127
  9
$INDEXCTL
280
     0
  9
$HIDETEXT
280
     0
  9
$XCLIPFRAME
280
     2
  9
$HALOGAP
280
     0
  9
$OBSCOLOR
 70
   257
  9
$OBSLTYPE
280
     0
  9
$INTERSECTIONDISPLAY
280
     0
  9
$INTERSECTIONCOLOR
 70
   257
  9
$DIMASSOC
280
     1
  9
$PROJECTNAME
  1

  9
$CAMERADISPLAY
290
0
  9
$LENSLENGTH
 40
50.0
  9
$CAMERAHEIGHT
 40
0.0
  9
$STEPSPERSEC
 40
2.0
  9
$STEPSIZE
 40
6.0
  9
$3DDWFPREC
 40
2.0
  9
$PSOLWIDTH
 40
0.25
  9
$PSOLHEIGHT
 40
4.0
  9
$LOFTANG1
 40
1.570796326795
  9
$LOFTANG2
 40
1.570796326795
  9
$LOFTMAG1
 40
0.0
  9
$LOFTMAG2
 40
0.0
  9
$LOFTPARAM
 70
     7
  9
$LOFTNORMALS
280
     1
  9
$LATITUDE
 40
37.795
  9
$LONGITUDE
 40
-122.394
  9
$NORTHDIRECTION
 40
0.0
  9
$TIMEZONE
 70
 -8000
  9
$LIGHTGLYPHDISPLAY
280
     1
  9
$TILEMODELIGHTSYNCH
280
     1
  9
$SOLIDHIST
280
     0
  9
$SHOWHIST
280
     1
  9
$DWFFRAME
280
     2
  9
$DGNFRAME
280
     0
  9
$REALWORLDSCALE
290
1
  9
$INTERFERECOLOR
 62
     1
  9
$CSHADOW
280
     0
  9
$SHADOWPLANELOCATION
 40
0.0
  0
ENDSEC
  0
SECTION
  2
TABLES
  0
TABLE
  2
APPID
100
AcDbSymbolTable
 70
     0
  0
APPID
  5
1
100
AcDbSymbolTableRecord
100
AcDbRegAppTableRecord
  2
ACAD
 70
     0
  0
APPID
  5
2
100
AcDbSymbolTableRecord
100
AcDbRegAppTableRecord
  2
ACADANNOTATIVE
 70
     0
  0
APPID
  5
4
100
AcDbSymbolTableRecord
100
AcDbRegAppTableRecord
  2
ACAD_MLEADERVER
 70
     0
  0
APPID
  5
3
100
AcDbSymbolTableRecord
100
AcDbRegAppTableRecord
  2
ACAD_NAV_VCDISPLAY
 70
     0
  0
ENDTAB
  0
TABLE
  2
BLOCK_RECORD
100
AcDbSymbolTable
 70
     0
  0
BLOCK_RECORD
  5
5
100
AcDbSymbolTableRecord
100
AcDbBlockTableRecord
  2
*MODEL_SPACE
 70
     0
340
0
 70
     0
280
     1
281
     1
  0
BLOCK_RECORD
  5
6
100
AcDbSymbolTableRecord
100
AcDbBlockTableRecord
  2
*PAPER_SPACE
 70
     0
340
0
 70
     0
280
     1
281
     1
  0
ENDTAB
  0
TABLE
  2
DIMSTYLE
100
AcDbSymbolTable
 70
     0
  0
DIMSTYLE
  5
A
100
AcDbSymbolTableRecord
100
AcDbDimStyleTableRecord
  2
ANNOTATIVE
 70
     0
  3

  4

 40
1.0
 41
0.18
 42
0.0625
 43
0.38
 44
0.18
 45
0.0
 46
0.0
 47
0.0
 48
0.0
 71
     0
 72
     0
 73
     1
 74
     1
 75
     0
 76
     0
 77
     0
 78
     0
 79
     0
140
0.18
141
0.09
142
0.0
143
25.4
144
1.0
145
0.0
146
1.0
147
0.09
148
0.0
170
     0
171
     2
172
     0
173
     0
174
     0
175
     0
176
     0
177
     0
178
     0
179
    12
270
     1
271
     0
272
     0
273
     1
274
     0
275
     0
276
    12
277
     1
278
    46
279
     0
280
     0
281
     0
282
     0
283
     0
284
     0
285
     0
286
     0
287
     0
288
     1
289
     0
340

341

342

343

344

371
     0
372
     0
  0
DIMSTYLE
  5
9
100
AcDbSymbolTableRecord
100
AcDbDimStyleTableRecord
  2
STANDARD
 70
     0
  3

  4

 40
1.0
 41
0.18
 42
0.0625
 43
0.38
 44
0.18
 45
0.0
 46
0.0
 47
0.0
 48
0.0
 71
     0
 72
     0
 73
     1
 74
     1
 75
     0
 76
     0
 77
     0
 78
     0
 79
     0
140
0.18
141
0.09
142
0.0
143
25.4
144
1.0
145
0.0
146
1.0
147
0.09
148
0.0
170
     0
171
     2
172
     0
173
     0
174
     0
175
     0
176
     0
177
     0
178
     0
179
    12
270
     1
271
     0
272
     0
273
     1
274
     0
275
     0
276
    12
277
     1
278
    46
279
     0
280
     0
281
     0
282
     0
283
     0
284
     0
285
     0
286
     0
287
     0
288
     1
289
     0
340

341

342

343

344

371
     0
372
     0
  0
ENDTAB
  0
TABLE
  2
LTYPE
100
AcDbSymbolTable
 70
     0
  0
LTYPE
  5
C
100
AcDbSymbolTableRecord
100
AcDbLinetypeTableRecord
  2
BYBLOCK
 70
     0
  3

 72
    65
 73
     0
 40
0.0
  0
LTYPE
  5
B
100
AcDbSymbolTableRecord
100
AcDbLinetypeTableRecord
  2
BYLAYER
 70
     0
  3

 72
    65
 73
     0
 40
0.0
  0
LTYPE
  5
8
100
AcDbSymbolTableRecord
100
AcDbLinetypeTableRecord
  2
CONTINUOUS
 70
     0
  3

 72
    65
 73
     0
 40
0.0
  0
ENDTAB
  0
TABLE
  2
LAYER
100
AcDbSymbolTable
 70
     0
  0
LAYER
  5
7
100
AcDbSymbolTableRecord
100
AcDbLayerTableRecord
  2
0
 70
     0
 62
     7
  6
CONTINUOUS
290
1
370
     0
390
0
347
0
  0
ENDTAB
  0
TABLE
  2
STYLE
100
AcDbSymbolTable
 70
     0
  0
STYLE
  5
E
100
AcDbSymbolTableRecord
100
AcDbTextStyleTableRecord
  2
ANNOTATIVE
 70
     0
 40
0.0
 41
1.0
 50
0.0
 71
     0
 42
0.2
  3
txt
  4

  0
STYLE
  5
D
100
AcDbSymbolTableRecord
100
AcDbTextStyleTableRecord
  2
STANDARD
 70
     0
 40
0.0
 41
1.0
 50
0.0
 71
     0
 42
0.2
  3
txt
  4

  0
ENDTAB
  0
TABLE
  2
VPORT
100
AcDbSymbolTable
 70
     0
  0
VPORT
  5
F
100
AcDbSymbolTableRecord
100
AcDbViewportTableRecord
  2
*ACTIVE
 70
     0
 10
0.0
 20
0.0
 11
1.0
 21
1.0
 12
0.0
 22
0.0
 13
0.0
 23
0.0
 14
1.0
 24
1.0
 15
1.0
 25
1.0
 16
0.0
 26
0.0
 36
1.0
 17
0.0
 27
0.0
 37
0.0
 42
50.0
 43
0.0
 44
0.0
 45
1.0
 50
0.0
 51
0.0
 71
     0
 72
  1000
 74
     3
  1

281
     0
170
     0
 61
     0
332
0
333
0
348
0
292
1
282
     0
141
0.0
142
0.0
  0
ENDTAB
  0
ENDSEC
  0
SECTION
  2
ENTITIES
  0
LWPOLYLINE
  5
10
100
AcDbEntity
  8
0
347
0
 62
     1
370
     0
430

440
        0
390
0
284
     0
100
AcDbPolyline
 90
        5
 70
     0
 10
0.0
 20
0.0
 91
        0
 10
366.0
 20
0.0
 91
        0
 10
366.0
 20
305.0
 91
        0
 10
0.0
 20
305.0
 91
        0
 10
0.0
 20
0.0
 91
        0
  0
LWPOLYLINE
  5
11
100
AcDbEntity
  8
0
347
0
 62
     1
370
     0
430

440
        0
390
0
284
     0
100
AcDbPolyline
 90
        5
 70
     0
 10
15.0
 20
15.0
 91
        0
 10
351.0
 20
15.0
 91
        0
 10
351.0
 20
290.0
 91
        0
 10
15.0
 20
290.0
 91
        0
 10
15.0
 20
15.0
 91
        0
  0
LWPOLYLINE
  5
12
100
AcDbEntity
  8
0
347
0
 62
     6
370
     0
430

440
        0
390
0
284
     0
100
AcDbPolyline
 90
        5
 70
     0
 10
25.0
 20
25.0
 91
        0
 10
341.0
 20
25.0
 91
        0
 10
341.0
 20
75.0
 91
        0
 10
25.0
 20
75.0
 91
        0
 10
25.0
 20
25.0
 91
        0
  0
LWPOLYLINE
  5
13
100
AcDbEntity
  8
0
347
0
 62
     6
370
     0
430

440
        0
390
0
284
     0
100
AcDbPolyline
 90
        5
 70
     0
 10
45.0
 20
45.0
 91
        0
 10
321.0
 20
45.0
 91
        0
 10
321.0
 20
95.0
 91
        0
 10
45.0
 20
95.0
 91
        0
 10
45.0
 20
45.0
 91
        0
  0
LWPOLYLINE
  5
14
100
AcDbEntity
  8
0
347
0
 62
     3
370
     0
430

440
        0
390
0
284
     0
100
AcDbPolyline
 90
        5
 70
     0
 10
158.0
 20
115.0
 91
        0
 10
208.0
 20
115.0
 91
        0
 10
208.0
 20
165.0
 91
        0
 10
158.0
 20
165.0
 91
        0
 10
158.0
 20
115.0
 91
        0
  0
LINE
  5
15
100
AcDbEntity
  8
0
347
0
 62
     4
370
     0
430

440
        0
390
0
284
     0
100
AcDbLine
 10
266.0
 20
305.0
 30
0.0
 11
346.0
 21
305.0
 31
0.0
  0
ARC
  5
16
100
AcDbEntity
  8
0
347
0
 62
     4
370
     0
430

440
        0
390
0
284
     0
100
AcDbCircle
 10
266.0
 20
305.0
 30
0.0
 40
80.0
100
AcDbArc
 50
270.0
 51
360.0
  0
LWPOLYLINE
  5
17
100
AcDbEntity
  8
0
347
0
 62
     4
370
     0
430

440
        0
390
0
284
     0
100
AcDbPolyline
 90
        5
 70
     0
 10
25.0
 20
189.0
 91
        0
 10
116.0
 20
189.0
 91
        0
 10
116.0
 20
280.0
 91
        0
 10
25.0
 20
280.0
 91
        0
 10
25.0
 20
189.0
 91
        0
  0
CIRCLE
  5
18
100
AcDbEntity
  8
0
347
0
 62
     4
370
     0
430

440
        0
390
0
284
     0
100
AcDbCircle
 10
70.5
 20
234.5
 30
0.0
 40
5.0
  0
CIRCLE
  5
19
100
AcDbEntity
  8
0
347
0
 62
     4
370
     0
430

440
        0
390
0
284
     0
100
AcDbCircle
 10
35.0
 20
260.0
 30
0.0
 40
3.0
  0
LWPOLYLINE
  5
1A
100
AcDbEntity
  8
0
347
0
 62
     5
370
     0
430

440
        0
390
0
284
     0
100
AcDbPolyline
 90
        5
 70
     0
 10
-183.0
 20
-183.0
 91
        0
 10
549.0
 20
-183.0
 91
        0
 10
549.0
 20
488.0
 91
        0
 10
-183.0
 20
488.0
 91
        0
 10
-183.0
 20
-183.0
 91
        0
  0
LINE
  5
1B
100
AcDbEntity
  8
0
347
0
 62
     8
370
     0
430

440
        0
390
0
284
     0
100
AcDbLine
 10
-183.0
 20
-168.0
 30
0.0
 11
549.0
 21
-168.0
 31
0.0
  0
LINE
  5
1C
100
AcDbEntity
  8
0
347
0
 62
     8
370
     0
430

440
        0
390
0
284
     0
100
AcDbLine
 10
-183.0
 20
-153.0
 30
0.0
 11
549.0
 21
-153.0
 31
0.0
  0
LINE
  5
1D
100
AcDbEntity
  8
0
347
0
 62
     8
370
     0
430

440
        0
390
0
284
     0
100
AcDbLine
 10
-183.0
 20
-138.0
 30
0.0
 11
549.0
 21
-138.0
 31
0.0
  0
LINE
  5
1E
100
AcDbEntity
  8
0
347
0
 62
     8
370
     0
430

440
        0
390
0
284
     0
100
AcDbLine
 10
-183.0
 20
-123.0
 30
0.0
 11
549.0
 21
-123.0
 31
0.0
  0
LINE
  5
1F
100
AcDbEntity
  8
0
347
0
 62
     8
370
     0
430

440
        0
390
0
284
     0
100
AcDbLine
 10
-183.0
 20
-108.0
 30
0.0
 11
549.0
 21
-108.0
 31
0.0
  0
LINE
  5
20
100
AcDbEntity
  8
0
347
0
 62
     8
370
     0
430

440
        0
390
0
284
     0
100
AcDbLine
 10
-183.0
 20
-93.0
 30
0.0
 11
549.0
 21
-93.0
 31
0.0
  0
LINE
  5
21
100
AcDbEntity
  8
0
347
0
 62
     8
370
     0
430

440
        0
390
0
284
     0
100
AcDbLine
 10
-183.0
 20
-78.0
 30
0.0
 11
549.0
 21
-78.0
 31
0.0
  0
LINE
  5
22
100
AcDbEntity
  8
0
347
0
 62
     8
370
     0
430

440
        0
390
0
284
     0
100
AcDbLine
 10
-183.0
 20
-63.0
 30
0.0
 11
549.0
 21
-63.0
 31
0.0
  0
LINE
  5
23
100
AcDbEntity
  8
0
347
0
 62
     8
370
     0
430

440
        0
390
0
284
     0
100
AcDbLine
 10
-183.0
 20
-48.0
 30
0.0
 11
549.0
 21
-48.0
 31
0.0
  0
LINE
  5
24
100
AcDbEntity
  8
0
347
0
 62
     8
370
     0
430

440
        0
390
0
284
     0
100
AcDbLine
 10
-183.0
 20
-33.0
 30
0.0
 11
549.0
 21
-33.0
 31
0.0
  0
LINE
  5
25
100
AcDbEntity
  8
0
347
0
 62
     8
370
     0
430

440
        0
390
0
284
     0
100
AcDbLine
 10
-183.0
 20
-18.0
 30
0.0
 11
549.0
 21
-18.0
 31
0.0
  0
LINE
  5
26
100
AcDbEntity
  8
0
347
0
 62
     8
370
     0
430

440
        0
390
0
284
     0
100
AcDbLine
 10
-183.0
 20
-3.0
 30
0.0
 11
549.0
 21
-3.0
 31
0.0
  0
LINE
  5
27
100
AcDbEntity
  8
0
347
0
 62
     8
370
     0
430

440
        0
390
0
284
     0
100
AcDbLine
 10
-183.0
 20
12.0
 30
0.0
 11
549.0
 21
12.0
 31
0.0
  0
LINE
  5
28
100
AcDbEntity
  8
0
347
0
 62
     8
370
     0
430

440
        0
390
0
284
     0
100
AcDbLine
 10
-183.0
 20
27.0
 30
0.0
 11
549.0
 21
27.0
 31
0.0
  0
LINE
  5
29
100
AcDbEntity
  8
0
347
0
 62
     8
370
     0
430

440
        0
390
0
284
     0
100
AcDbLine
 10
-183.0
 20
42.0
 30
0.0
 11
549.0
 21
42.0
 31
0.0
  0
LINE
  5
2A
100
AcDbEntity
  8
0
347
0
 62
     8
370
     0
430

440
        0
390
0
284
     0
100
AcDbLine
 10
-183.0
 20
57.0
 30
0.0
 11
549.0
 21
57.0
 31
0.0
  0
LINE
  5
2B
100
AcDbEntity
  8
0
347
0
 62
     8
370
     0
430

440
        0
390
0
284
     0
100
AcDbLine
 10
-183.0
 20
72.0
 30
0.0
 11
549.0
 21
72.0
 31
0.0
  0
LINE
  5
2C
100
AcDbEntity
  8
0
347
0
 62
     8
370
     0
430

440
        0
390
0
284
     0
100
AcDbLine
 10
-183.0
 20
87.0
 30
0.0
 11
549.0
 21
87.0
 31
0.0
  0
LINE
  5
2D
100
AcDbEntity
  8
0
347
0
 62
     8
370
     0
430

440
        0
390
0
284
     0
100
AcDbLine
 10
-183.0
 20
102.0
 30
0.0
 11
549.0
 21
102.0
 31
0.0
  0
LINE
  5
2E
100
AcDbEntity
  8
0
347
0
 62
     8
370
     0
430

440
        0
390
0
284
     0
100
AcDbLine
 10
-183.0
 20
117.0
 30
0.0
 11
549.0
 21
117.0
 31
0.0
  0
LINE
  5
2F
100
AcDbEntity
  8
0
347
0
 62
     8
370
     0
430

440
        0
390
0
284
     0
100
AcDbLine
 10
-183.0
 20
132.0
 30
0.0
 11
549.0
 21
132.0
 31
0.0
  0
LINE
  5
30
100
AcDbEntity
  8
0
347
0
 62
     8
370
     0
430

440
        0
390
0
284
     0
100
AcDbLine
 10
-183.0
 20
147.0
 30
0.0
 11
549.0
 21
147.0
 31
0.0
  0
LINE
  5
31
100
AcDbEntity
  8
0
347
0
 62
     8
370
     0
430

440
        0
390
0
284
     0
100
AcDbLine
 10
-183.0
 20
162.0
 30
0.0
 11
549.0
 21
162.0
 31
0.0
  0
LINE
  5
32
100
AcDbEntity
  8
0
347
0
 62
     8
370
     0
430

440
        0
390
0
284
     0
100
AcDbLine
 10
-183.0
 20
177.0
 30
0.0
 11
549.0
 21
177.0
 31
0.0
  0
LINE
  5
33
100
AcDbEntity
  8
0
347
0
 62
     8
370
     0
430

440
        0
390
0
284
     0
100
AcDbLine
 10
-183.0
 20
192.0
 30
0.0
 11
549.0
 21
192.0
 31
0.0
  0
LINE
  5
34
100
AcDbEntity
  8
0
347
0
 62
     8
370
     0
430

440
        0
390
0
284
     0
100
AcDbLine
 10
-183.0
 20
207.0
 30
0.0
 11
549.0
 21
207.0
 31
0.0
  0
LINE
  5
35
100
AcDbEntity
  8
0
347
0
 62
     8
370
     0
430

440
        0
390
0
284
     0
100
AcDbLine
 10
-183.0
 20
222.0
 30
0.0
 11
549.0
 21
222.0
 31
0.0
  0
LINE
  5
36
100
AcDbEntity
  8
0
347
0
 62
     8
370
     0
430

440
        0
390
0
284
     0
100
AcDbLine
 10
-183.0
 20
237.0
 30
0.0
 11
549.0
 21
237.0
 31
0.0
  0
LINE
  5
37
100
AcDbEntity
  8
0
347
0
 62
     8
370
     0
430

440
        0
390
0
284
     0
100
AcDbLine
 10
-183.0
 20
252.0
 30
0.0
 11
549.0
 21
252.0
 31
0.0
  0
LINE
  5
38
100
AcDbEntity
  8
0
347
0
 62
     8
370
     0
430

440
        0
390
0
284
     0
100
AcDbLine
 10
-183.0
 20
267.0
 30
0.0
 11
549.0
 21
267.0
 31
0.0
  0
LINE
  5
39
100
AcDbEntity
  8
0
347
0
 62
     8
370
     0
430

440
        0
390
0
284
     0
100
AcDbLine
 10
-183.0
 20
282.0
 30
0.0
 11
549.0
 21
282.0
 31
0.0
  0
LINE
  5
3A
100
AcDbEntity
  8
0
347
0
 62
     8
370
     0
430

440
        0
390
0
284
     0
100
AcDbLine
 10
-183.0
 20
297.0
 30
0.0
 11
549.0
 21
297.0
 31
0.0
  0
LINE
  5
3B
100
AcDbEntity
  8
0
347
0
 62
     8
370
     0
430

440
        0
390
0
284
     0
100
AcDbLine
 10
-183.0
 20
312.0
 30
0.0
 11
549.0
 21
312.0
 31
0.0
  0
LINE
  5
3C
100
AcDbEntity
  8
0
347
0
 62
     8
370
     0
430

440
        0
390
0
284
     0
100
AcDbLine
 10
-183.0
 20
327.0
 30
0.0
 11
549.0
 21
327.0
 31
0.0
  0
LINE
  5
3D
100
AcDbEntity
  8
0
347
0
 62
     8
370
     0
430

440
        0
390
0
284
     0
100
AcDbLine
 10
-183.0
 20
342.0
 30
0.0
 11
549.0
 21
342.0
 31
0.0
  0
LINE
  5
3E
100
AcDbEntity
  8
0
347
0
 62
     8
370
     0
430

440
        0
390
0
284
     0
100
AcDbLine
 10
-183.0
 20
357.0
 30
0.0
 11
549.0
 21
357.0
 31
0.0
  0
LINE
  5
3F
100
AcDbEntity
  8
0
347
0
 62
     8
370
     0
430

440
        0
390
0
284
     0
100
AcDbLine
 10
-183.0
 20
372.0
 30
0.0
 11
549.0
 21
372.0
 31
0.0
  0
LINE
  5
40
100
AcDbEntity
  8
0
347
0
 62
     8
370
     0
430

440
        0
390
0
284
     0
100
AcDbLine
 10
-183.0
 20
387.0
 30
0.0
 11
549.0
 21
387.0
 31
0.0
  0
LINE
  5
41
100
AcDbEntity
  8
0
347
0
 62
     8
370
     0
430

440
        0
390
0
284
     0
100
AcDbLine
 10
-183.0
 20
402.0
 30
0.0
 11
549.0
 21
402.0
 31
0.0
  0
LINE
  5
42
100
AcDbEntity
  8
0
347
0
 62
     8
370
     0
430

440
        0
390
0
284
     0
100
AcDbLine
 10
-183.0
 20
417.0
 30
0.0
 11
549.0
 21
417.0
 31
0.0
  0
LINE
  5
43
100
AcDbEntity
  8
0
347
0
 62
     8
370
     0
430

440
        0
390
0
284
     0
100
AcDbLine
 10
-183.0
 20
432.0
 30
0.0
 11
549.0
 21
432.0
 31
0.0
  0
LINE
  5
44
100
AcDbEntity
  8
0
347
0
 62
     8
370
     0
430

440
        0
390
0
284
     0
100
AcDbLine
 10
-183.0
 20
447.0
 30
0.0
 11
549.0
 21
447.0
 31
0.0
  0
LINE
  5
45
100
AcDbEntity
  8
0
347
0
 62
     8
370
     0
430

440
        0
390
0
284
     0
100
AcDbLine
 10
-183.0
 20
462.0
 30
0.0
 11
549.0
 21
462.0
 31
0.0
  0
LINE
  5
46
100
AcDbEntity
  8
0
347
0
 62
     8
370
     0
430

440
        0
390
0
284
     0
100
AcDbLine
 10
-183.0
 20
477.0
 30
0.0
 11
549.0
 21
477.0
 31
0.0
  0
CIRCLE
  5
47
100
AcDbEntity
  8
0
347
0
 62
     2
370
     0
430

440
        0
390
0
284
     0
100
AcDbCircle
 10
-183.0
 20
-183.0
 30
0.0
 40
5.0
  0
CIRCLE
  5
48
100
AcDbEntity
  8
0
347
0
 62
     2
370
     0
430

440
        0
390
0
284
     0
100
AcDbCircle
 10
-63.0
 20
-183.0
 30
0.0
 40
5.0
  0
CIRCLE
  5
49
100
AcDbEntity
  8
0
347
0
 62
     2
370
     0
430

440
        0
390
0
284
     0
100
AcDbCircle
 10
57.0
 20
-183.0
 30
0.0
 40
5.0
  0
CIRCLE
  5
4A
100
AcDbEntity
  8
0
347
0
 62
     2
370
     0
430

440
        0
390
0
284
     0
100
AcDbCircle
 10
177.0
 20
-183.0
 30
0.0
 40
5.0
  0
CIRCLE
  5
4B
100
AcDbEntity
  8
0
347
0
 62
     2
370
     0
430

440
        0
390
0
284
     0
100
AcDbCircle
 10
297.0
 20
-183.0
 30
0.0
 40
5.0
  0
CIRCLE
  5
4C
100
AcDbEntity
  8
0
347
0
 62
     2
370
     0
430

440
        0
390
0
284
     0
100
AcDbCircle
 10
417.0
 20
-183.0
 30
0.0
 40
5.0
  0
CIRCLE
  5
4D
100
AcDbEntity
  8
0
347
0
 62
     2
370
     0
430

440
        0
390
0
284
     0
100
AcDbCircle
 10
537.0
 20
-183.0
 30
0.0
 40
5.0
  0
CIRCLE
  5
4E
100
AcDbEntity
  8
0
347
0
 62
     2
370
     0
430

440
        0
390
0
284
     0
100
AcDbCircle
 10
-183.0
 20
488.0
 30
0.0
 40
5.0
  0
CIRCLE
  5
4F
100
AcDbEntity
  8
0
347
0
 62
     2
370
     0
430

440
        0
390
0
284
     0
100
AcDbCircle
 10
-63.0
 20
488.0
 30
0.0
 40
5.0
  0
CIRCLE
  5
50
100
AcDbEntity
  8
0
347
0
 62
     2
370
     0
430

440
        0
390
0
284
     0
100
AcDbCircle
 10
57.0
 20
488.0
 30
0.0
 40
5.0
  0
CIRCLE
  5
51
100
AcDbEntity
  8
0
347
0
 62
     2
370
     0
430

440
        0
390
0
284
     0
100
AcDbCircle
 10
177.0
 20
488.0
 30
0.0
 40
5.0
  0
CIRCLE
  5
52
100
AcDbEntity
  8
0
347
0
 62
     2
370
     0
430

440
        0
390
0
284
     0
100
AcDbCircle
 10
297.0
 20
488.0
 30
0.0
 40
5.0
  0
CIRCLE
  5
53
100
AcDbEntity
  8
0
347
0
 62
     2
370
     0
430

440
        0
390
0
284
     0
100
AcDbCircle
 10
417.0
 20
488.0
 30
0.0
 40
5.0
  0
CIRCLE
  5
54
100
AcDbEntity
  8
0
347
0
 62
     2
370
     0
430

440
        0
390
0
284
     0
100
AcDbCircle
 10
537.0
 20
488.0
 30
0.0
 40
5.0
  0
CIRCLE
  5
55
100
AcDbEntity
  8
0
347
0
 62
     2
370
     0
430

440
        0
390
0
284
     0
100
AcDbCircle
 10
-183.0
 20
-183.0
 30
0.0
 40
5.0
  0
CIRCLE
  5
56
100
AcDbEntity
  8
0
347
0
 62
     2
370
     0
430

440
        0
390
0
284
     0
100
AcDbCircle
 10
-183.0
 20
-63.0
 30
0.0
 40
5.0
  0
CIRCLE
  5
57
100
AcDbEntity
  8
0
347
0
 62
     2
370
     0
430

440
        0
390
0
284
     0
100
AcDbCircle
 10
-183.0
 20
57.0
 30
0.0
 40
5.0
  0
CIRCLE
  5
58
100
AcDbEntity
  8
0
347
0
 62
     2
370
     0
430

440
        0
390
0
284
     0
100
AcDbCircle
 10
-183.0
 20
177.0
 30
0.0
 40
5.0
  0
CIRCLE
  5
59
100
AcDbEntity
  8
0
347
0
 62
     2
370
     0
430

440
        0
390
0
284
     0
100
AcDbCircle
 10
-183.0
 20
297.0
 30
0.0
 40
5.0
  0
CIRCLE
  5
5A
100
AcDbEntity
  8
0
347
0
 62
     2
370
     0
430

440
        0
390
0
284
     0
100
AcDbCircle
 10
-183.0
 20
417.0
 30
0.0
 40
5.0
  0
CIRCLE
  5
5B
100
AcDbEntity
  8
0
347
0
 62
     2
370
     0
430

440
        0
390
0
284
     0
100
AcDbCircle
 10
549.0
 20
-183.0
 30
0.0
 40
5.0
  0
CIRCLE
  5
5C
100
AcDbEntity
  8
0
347
0
 62
     2
370
     0
430

440
        0
390
0
284
     0
100
AcDbCircle
 10
549.0
 20
-63.0
 30
0.0
 40
5.0
  0
CIRCLE
  5
5D
100
AcDbEntity
  8
0
347
0
 62
     2
370
     0
430

440
        0
390
0
284
     0
100
AcDbCircle
 10
549.0
 20
57.0
 30
0.0
 40
5.0
  0
CIRCLE
  5
5E
100
AcDbEntity
  8
0
347
0
 62
     2
370
     0
430

440
        0
390
0
284
     0
100
AcDbCircle
 10
549.0
 20
177.0
 30
0.0
 40
5.0
  0
CIRCLE
  5
5F
100
AcDbEntity
  8
0
347
0
 62
     2
370
     0
430

440
        0
390
0
284
     0
100
AcDbCircle
 10
549.0
 20
297.0
 30
0.0
 40
5.0
  0
CIRCLE
  5
60
100
AcDbEntity
  8
0
347
0
 62
     2
370
     0
430

440
        0
390
0
284
     0
100
AcDbCircle
 10
549.0
 20
417.0
 30
0.0
 40
5.0
  0
LWPOLYLINE
  5
61
100
AcDbEntity
  8
0
347
0
 62
     5
370
     0
430

440
        0
390
0
284
     0
100
AcDbPolyline
 90
        5
 70
     0
 10
108.0
 20
488.0
 91
        0
 10
258.0
 20
488.0
 91
        0
 10
258.0
 20
518.0
 91
        0
 10
108.0
 20
518.0
 91
        0
 10
108.0
 20
488.0
 91
        0
  0
LWPOLYLINE
  5
62
100
AcDbEntity
  8
0
347
0
 62
     5
370
     0
430

440
        0
390
0
284
     0
100
AcDbPolyline
 90
        5
 70
     0
 10
108.0
 20
518.0
 91
        0
 10
258.0
 20
518.0
 91
        0
 10
258.0
 20
548.0
 91
        0
 10
108.0
 20
548.0
 91
        0
 10
108.0
 20
518.0
 91
        0
  0
LWPOLYLINE
  5
63
100
AcDbEntity
  8
0
347
0
 62
     5
370
     0
430

440
        0
390
0
284
     0
100
AcDbPolyline
 90
        5
 70
     0
 10
108.0
 20
548.0
 91
        0
 10
258.0
 20
548.0
 91
        0
 10
258.0
 20
578.0
 91
        0
 10
108.0
 20
578.0
 91
        0
 10
108.0
 20
548.0
 91
        0
  0
LWPOLYLINE
  5
64
100
AcDbEntity
  8
0
347
0
 62
     5
370
     0
430

440
        0
390
0
284
     0
100
AcDbPolyline
 90
        5
 70
     0
 10
108.0
 20
578.0
 91
        0
 10
258.0
 20
578.0
 91
        0
 10
258.0
 20
608.0
 91
        0
 10
108.0
 20
608.0
 91
        0
 10
108.0
 20
578.0
 91
        0
  0
CIRCLE
  5
65
100
AcDbEntity
  8
0
347
0
 62
     4
370
     0
430

440
        0
390
0
284
     0
100
AcDbCircle
 10
-120.0
 20
152.5
 30
0.0
 40
106.5
  0
CIRCLE
  5
66
100
AcDbEntity
  8
0
347
0
 62
     4
370
     0
430

440
        0
390
0
284
     0
100
AcDbCircle
 10
-120.0
 20
152.5
 30
0.0
 40
86.5
  0
CIRCLE
  5
67
100
AcDbEntity
  8
0
347
0
 62
     6
370
     0
430

440
        0
390
0
284
     0
100
AcDbCircle
 10
-72.977399051095
 20
199.522600948905
 30
0.0
 40
15.0
  0
CIRCLE
  5
68
100
AcDbEntity
  8
0
347
0
 62
     6
370
     0
430

440
        0
390
0
284
     0
100
AcDbCircle
 10
-167.022600948905
 20
199.522600948905
 30
0.0
 40
15.0
  0
CIRCLE
  5
69
100
AcDbEntity
  8
0
347
0
 62
     6
370
     0
430

440
        0
390
0
284
     0
100
AcDbCircle
 10
-167.022600948905
 20
105.477399051095
 30
0.0
 40
15.0
  0
CIRCLE
  5
6A
100
AcDbEntity
  8
0
347
0
 62
     6
370
     0
430

440
        0
390
0
284
     0
100
AcDbCircle
 10
-72.977399051095
 20
105.477399051095
 30
0.0
 40
15.0
  0
CIRCLE
  5
6B
100
AcDbEntity
  8
0
347
0
 62
     3
370
     0
430

440
        0
390
0
284
     0
100
AcDbCircle
 10
-23.5
 20
152.5
 30
0.0
 40
3.0
  0
CIRCLE
  5
6C
100
AcDbEntity
  8
0
347
0
 62
     3
370
     0
430

440
        0
390
0
284
     0
100
AcDbCircle
 10
-51.764195615498
 20
220.735804384502
 30
0.0
 40
3.0
  0
CIRCLE
  5
6D
100
AcDbEntity
  8
0
347
0
 62
     3
370
     0
430

440
        0
390
0
284
     0
100
AcDbCircle
 10
-120.0
 20
249.0
 30
0.0
 40
3.0
  0
CIRCLE
  5
6E
100
AcDbEntity
  8
0
347
0
 62
     3
370
     0
430

440
        0
390
0
284
     0
100
AcDbCircle
 10
-188.235804384502
 20
220.735804384502
 30
0.0
 40
3.0
  0
CIRCLE
  5
6F
100
AcDbEntity
  8
0
347
0
 62
     3
370
     0
430

440
        0
390
0
284
     0
100
AcDbCircle
 10
-216.5
 20
152.5
 30
0.0
 40
3.0
  0
CIRCLE
  5
70
100
AcDbEntity
  8
0
347
0
 62
     3
370
     0
430

440
        0
390
0
284
     0
100
AcDbCircle
 10
-188.235804384502
 20
84.264195615498
 30
0.0
 40
3.0
  0
CIRCLE
  5
71
100
AcDbEntity
  8
0
347
0
 62
     3
370
     0
430

440
        0
390
0
284
     0
100
AcDbCircle
 10
-120.0
 20
56.0
 30
0.0
 40
3.0
  0
CIRCLE
  5
72
100
AcDbEntity
  8
0
347
0
 62
     3
370
     0
430

440
        0
390
0
284
     0
100
AcDbCircle
 10
-51.764195615498
 20
84.264195615498
 30
0.0
 40
3.0
  0
LWPOLYLINE
  5
73
100
AcDbEntity
  8
0
347
0
 62
     5
370
     0
430

440
        0
390
0
284
     0
100
AcDbPolyline
 90
        5
 70
     0
 10
-13.5
 20
122.5
 91
        0
 10
11.5
 20
122.5
 91
        0
 10
11.5
 20
182.5
 91
        0
 10
-13.5
 20
182.5
 91
        0
 10
-13.5
 20
122.5
 91
        0
  0
LWPOLYLINE
  5
74
100
AcDbEntity
  8
0
347
0
 62
     5
370
     0
430

440
        0
390
0
284
     0
100
AcDbPolyline
 90
        5
 70
     0
 10
11.5
 20
122.5
 91
        0
 10
36.5
 20
122.5
 91
        0
 10
36.5
 20
182.5
 91
        0
 10
11.5
 20
182.5
 91
        0
 10
11.5
 20
122.5
 91
        0
  0
LWPOLYLINE
  5
75
100
AcDbEntity
  8
0
347
0
 62
     5
370
     0
430

440
        0
390
0
284
     0
100
AcDbPolyline
 90
        5
 70
     0
 10
36.5
 20
122.5
 91
        0
 10
61.5
 20
122.5
 91
        0
 10
61.5
 20
182.5
 91
        0
 10
36.5
 20
182.5
 91
        0
 10
36.5
 20
122.5
 91
        0
  0
TEXT
  5
76
100
AcDbEntity
  8
0
347
0
 62
     7
370
     0
430

440
        0
390
0
284
     0
100
AcDbText
 10
183.0
 20
280.0
 30
0.0
 40
20.0
  1
SAUNA
100
AcDbText
  0
TEXT
  5
77
100
AcDbEntity
  8
0
347
0
 62
     7
370
     0
430

440
        0
390
0
284
     0
100
AcDbText
 10
30.0
 20
170.0
 30
0.0
 40
10.0
  1
SHOWER
100
AcDbText
  0
TEXT
  5
78
100
AcDbEntity
  8
0
347
0
 62
     7
370
     0
430

440
        0
390
0
284
     0
100
AcDbText
 10
100.0
 20
-100.0
 30
0.0
 40
15.0
  1
DECK/TERRACE
100
AcDbText
  0
TEXT
  5
79
100
AcDbEntity
  8
0
347
0
 62
     7
370
     0
430

440
        0
390
0
284
     0
100
AcDbText
 10
-170.0
 20
130.0
 30
0.0
 40
12.0
  1
HOT TUB
100
AcDbText
  0
LINE
  5
7A
100
AcDbEntity
  8
0
347
0
 62
     2
370
     0
430

440
        0
390
0
284
     0
100
AcDbLine
 10
0.0
 20
330.0
 30
0.0
 11
366.0
 21
330.0
 31
0.0
  0
LINE
  5
7B
100
AcDbEntity
  8
0
347
0
 62
     2
370
     0
430

440
        0
390
0
284
     0
100
AcDbLine
 10
390.0
 20
0.0
 30
0.0
 11
390.0
 21
305.0
 31
0.0
  0
LINE
  5
7C
100
AcDbEntity
  8
0
347
0
 62
     8
370
     0
430

440
        0
390
0
284
     0
100
AcDbLine
 10
900.0
 20
0.0
 30
0.0
 11
1466.0
 21
0.0
 31
0.0
  0
LWPOLYLINE
  5
7D
100
AcDbEntity
  8
0
347
0
 62
     5
370
     0
430

440
        0
390
0
284
     0
100
AcDbPolyline
 90
        5
 70
     0
 10
817.0
 20
0.0
 91
        0
 10
817.0
 20
40.0
 91
        0
 10
1549.0
 20
40.0
 91
        0
 10
1549.0
 20
0.0
 91
        0
 10
817.0
 20
0.0
 91
        0
  0
LWPOLYLINE
  5
7E
100
AcDbEntity
  8
0
347
0
 62
     1
370
     0
430

440
        0
390
0
284
     0
100
AcDbPolyline
 90
        5
 70
     0
 10
1000.0
 20
40.0
 91
        0
 10
1000.0
 20
253.0
 91
        0
 10
1366.0
 20
253.0
 91
        0
 10
1366.0
 20
40.0
 91
        0
 10
1000.0
 20
40.0
 91
        0
  0
LWPOLYLINE
  5
7F
100
AcDbEntity
  8
0
347
0
 62
     4
370
     0
430

440
        0
390
0
284
     0
100
AcDbPolyline
 90
        5
 70
     0
 10
1266.0
 20
40.0
 91
        0
 10
1266.0
 20
230.0
 91
        0
 10
1346.0
 20
230.0
 91
        0
 10
1346.0
 20
40.0
 91
        0
 10
1266.0
 20
40.0
 91
        0
  0
LINE
  5
80
100
AcDbEntity
  8
0
347
0
 62
     5
370
     0
430

440
        0
390
0
284
     0
100
AcDbLine
 10
1108.0
 20
0.0
 30
0.0
 11
1258.0
 21
0.0
 31
0.0
  0
LINE
  5
81
100
AcDbEntity
  8
0
347
0
 62
     5
370
     0
430

440
        0
390
0
284
     0
100
AcDbLine
 10
1108.0
 20
10.0
 30
0.0
 11
1258.0
 21
10.0
 31
0.0
  0
LINE
  5
82
100
AcDbEntity
  8
0
347
0
 62
     5
370
     0
430

440
        0
390
0
284
     0
100
AcDbLine
 10
1108.0
 20
20.0
 30
0.0
 11
1258.0
 21
20.0
 31
0.0
  0
LINE
  5
83
100
AcDbEntity
  8
0
347
0
 62
     5
370
     0
430

440
        0
390
0
284
     0
100
AcDbLine
 10
1108.0
 20
30.0
 30
0.0
 11
1258.0
 21
30.0
 31
0.0
  0
TEXT
  5
84
100
AcDbEntity
  8
0
347
0
 62
     7
370
     0
430

440
        0
390
0
284
     0
100
AcDbText
 10
1103.0
 20
283.0
 30
0.0
 40
15.0
  1
FRONT ELEVATION
100
AcDbText
  0
LWPOLYLINE
  5
85
100
AcDbEntity
  8
0
347
0
 62
     1
370
     0
430

440
        0
390
0
284
     0
100
AcDbPolyline
 90
        5
 70
     0
 10
970.0
 20
-830.0
 91
        0
 10
1396.0
 20
-830.0
 91
        0
 10
1396.0
 20
-465.0
 91
        0
 10
970.0
 20
-465.0
 91
        0
 10
970.0
 20
-830.0
 91
        0
  0
LINE
  5
86
100
AcDbEntity
  8
0
347
0
 62
     2
370
     0
430

440
        0
390
0
284
     0
100
AcDbLine
 10
970.0
 20
-647.5
 30
0.0
 11
1396.0
 21
-647.5
 31
0.0
  0
LINE
  5
87
100
AcDbEntity
  8
0
347
0
 62
     8
370
     0
430

440
        0
390
0
284
     0
100
AcDbLine
 10
1023.25
 20
-830.0
 30
0.0
 11
1023.25
 21
-647.5
 31
0.0
  0
LINE
  5
88
100
AcDbEntity
  8
0
347
0
 62
     8
370
     0
430

440
        0
390
0
284
     0
100
AcDbLine
 10
1023.25
 20
-647.5
 30
0.0
 11
1023.25
 21
-465.0
 31
0.0
  0
LINE
  5
89
100
AcDbEntity
  8
0
347
0
 62
     8
370
     0
430

440
        0
390
0
284
     0
100
AcDbLine
 10
1076.5
 20
-830.0
 30
0.0
 11
1076.5
 21
-647.5
 31
0.0
  0
LINE
  5
8A
100
AcDbEntity
  8
0
347
0
 62
     8
370
     0
430

440
        0
390
0
284
     0
100
AcDbLine
 10
1076.5
 20
-647.5
 30
0.0
 11
1076.5
 21
-465.0
 31
0.0
  0
LINE
  5
8B
100
AcDbEntity
  8
0
347
0
 62
     8
370
     0
430

440
        0
390
0
284
     0
100
AcDbLine
 10
1129.75
 20
-830.0
 30
0.0
 11
1129.75
 21
-647.5
 31
0.0
  0
LINE
  5
8C
100
AcDbEntity
  8
0
347
0
 62
     8
370
     0
430

440
        0
390
0
284
     0
100
AcDbLine
 10
1129.75
 20
-647.5
 30
0.0
 11
1129.75
 21
-465.0
 31
0.0
  0
LINE
  5
8D
100
AcDbEntity
  8
0
347
0
 62
     8
370
     0
430

440
        0
390
0
284
     0
100
AcDbLine
 10
1183.0
 20
-830.0
 30
0.0
 11
1183.0
 21
-647.5
 31
0.0
  0
LINE
  5
8E
100
AcDbEntity
  8
0
347
0
 62
     8
370
     0
430

440
        0
390
0
284
     0
100
AcDbLine
 10
1183.0
 20
-647.5
 30
0.0
 11
1183.0
 21
-465.0
 31
0.0
  0
LINE
  5
8F
100
AcDbEntity
  8
0
347
0
 62
     8
370
     0
430

440
        0
390
0
284
     0
100
AcDbLine
 10
1236.25
 20
-830.0
 30
0.0
 11
1236.25
 21
-647.5
 31
0.0
  0
LINE
  5
90
100
AcDbEntity
  8
0
347
0
 62
     8
370
     0
430

440
        0
390
0
284
     0
100
AcDbLine
 10
1236.25
 20
-647.5
 30
0.0
 11
1236.25
 21
-465.0
 31
0.0
  0
LINE
  5
91
100
AcDbEntity
  8
0
347
0
 62
     8
370
     0
430

440
        0
390
0
284
     0
100
AcDbLine
 10
1289.5
 20
-830.0
 30
0.0
 11
1289.5
 21
-647.5
 31
0.0
  0
LINE
  5
92
100
AcDbEntity
  8
0
347
0
 62
     8
370
     0
430

440
        0
390
0
284
     0
100
AcDbLine
 10
1289.5
 20
-647.5
 30
0.0
 11
1289.5
 21
-465.0
 31
0.0
  0
LINE
  5
93
100
AcDbEntity
  8
0
347
0
 62
     8
370
     0
430

440
        0
390
0
284
     0
100
AcDbLine
 10
1342.75
 20
-830.0
 30
0.0
 11
1342.75
 21
-647.5
 31
0.0
  0
LINE
  5
94
100
AcDbEntity
  8
0
347
0
 62
     8
370
     0
430

440
        0
390
0
284
     0
100
AcDbLine
 10
1342.75
 20
-647.5
 30
0.0
 11
1342.75
 21
-465.0
 31
0.0
  0
CIRCLE
  5
95
100
AcDbEntity
  8
0
347
0
 62
     3
370
     0
430

440
        0
390
0
284
     0
100
AcDbCircle
 10
1183.0
 20
-720.0
 30
0.0
 40
15.0
  0
TEXT
  5
96
100
AcDbEntity
  8
0
347
0
 62
     7
370
     0
430

440
        0
390
0
284
     0
100
AcDbText
 10
1123.0
 20
-435.0
 30
0.0
 40
15.0
  1
TOP VIEW / ROOF
100
AcDbText
  0
LINE
  5
97
100
AcDbEntity
  8
0
347
0
 62
     8
370
     0
430

440
        0
390
0
284
     0
100
AcDbLine
 10
1550.0
 20
0.0
 30
0.0
 11
1955.0
 21
0.0
 31
0.0
  0
LINE
  5
98
100
AcDbEntity
  8
0
347
0
 62
     5
370
     0
430

440
        0
390
0
284
     0
100
AcDbLine
 10
1600.0
 20
0.0
 30
0.0
 11
1905.0
 21
40.0
 31
0.0
  0
LINE
  5
99
100
AcDbEntity
  8
0
347
0
 62
     1
370
     0
430

440
        0
390
0
284
     0
100
AcDbLine
 10
1600.0
 20
40.0
 30
0.0
 11
1600.0
 21
253.0
 31
0.0
  0
LINE
  5
9A
100
AcDbEntity
  8
0
347
0
 62
     1
370
     0
430

440
        0
390
0
284
     0
100
AcDbLine
 10
1905.0
 20
40.0
 30
0.0
 11
1905.0
 21
253.0
 31
0.0
  0
LINE
  5
9B
100
AcDbEntity
  8
0
347
0
 62
     1
370
     0
430

440
        0
390
0
284
     0
100
AcDbLine
 10
1600.0
 20
253.0
 30
0.0
 11
1752.5
 21
353.0
 31
0.0
  0
LINE
  5
9C
100
AcDbEntity
  8
0
347
0
 62
     1
370
     0
430

440
        0
390
0
284
     0
100
AcDbLine
 10
1752.5
 20
353.0
 30
0.0
 11
1905.0
 21
253.0
 31
0.0
  0
LWPOLYLINE
  5
9D
100
AcDbEntity
  8
0
347
0
 62
     4
370
     0
430

440
        0
390
0
284
     0
100
AcDbPolyline
 90
        5
 70
     0
 10
1650.0
 20
140.0
 91
        0
 10
1650.0
 20
210.0
 91
        0
 10
1710.0
 20
210.0
 91
        0
 10
1710.0
 20
140.0
 91
        0
 10
1650.0
 20
140.0
 91
        0
  0
TEXT
  5
9E
100
AcDbEntity
  8
0
347
0
 62
     7
370
     0
430

440
        0
390
0
284
     0
100
AcDbText
 10
1682.5
 20
383.0
 30
0.0
 40
15.0
  1
SIDE ELEVATION
100
AcDbText
  0
LINE
  5
9F
100
AcDbEntity
  8
0
347
0
 62
     8
370
     0
430

440
        0
390
0
284
     0
100
AcDbLine
 10
2150.0
 20
0.0
 30
0.0
 11
2616.0
 21
0.0
 31
0.0
  0
LWPOLYLINE
  5
A0
100
AcDbEntity
  8
0
347
0
 62
     5
370
     0
430

440
        0
390
0
284
     0
100
AcDbPolyline
 90
        4
 70
     0
 10
2100.0
 20
0.0
 91
        0
 10
2100.0
 20
40.0
 91
        0
 10
2666.0
 20
40.0
 91
        0
 10
2666.0
 20
0.0
 91
        0
  0
LWPOLYLINE
  5
A1
100
AcDbEntity
  8
0
347
0
 62
     1
370
     0
430

440
        0
390
0
284
     0
100
AcDbPolyline
 90
        5
 70
     0
 10
2200.0
 20
40.0
 91
        0
 10
2200.0
 20
253.0
 91
        0
 10
2215.0
 20
253.0
 91
        0
 10
2215.0
 20
40.0
 91
        0
 10
2200.0
 20
40.0
 91
        0
  0
LWPOLYLINE
  5
A2
100
AcDbEntity
  8
0
347
0
 62
     1
370
     0
430

440
        0
390
0
284
     0
100
AcDbPolyline
 90
        5
 70
     0
 10
2551.0
 20
40.0
 91
        0
 10
2551.0
 20
253.0
 91
        0
 10
2566.0
 20
253.0
 91
        0
 10
2566.0
 20
40.0
 91
        0
 10
2551.0
 20
40.0
 91
        0
  0
LWPOLYLINE
  5
A3
100
AcDbEntity
  8
0
347
0
 62
     6
370
     0
430

440
        0
390
0
284
     0
100
AcDbPolyline
 90
        5
 70
     0
 10
2225.0
 20
85.0
 91
        0
 10
2383.0
 20
85.0
 91
        0
 10
2383.0
 20
90.0
 91
        0
 10
2225.0
 20
90.0
 91
        0
 10
2225.0
 20
85.0
 91
        0
  0
LWPOLYLINE
  5
A4
100
AcDbEntity
  8
0
347
0
 62
     6
370
     0
430

440
        0
390
0
284
     0
100
AcDbPolyline
 90
        5
 70
     0
 10
2245.0
 20
130.0
 91
        0
 10
2363.0
 20
130.0
 91
        0
 10
2363.0
 20
135.0
 91
        0
 10
2245.0
 20
135.0
 91
        0
 10
2245.0
 20
130.0
 91
        0
  0
LWPOLYLINE
  5
A5
100
AcDbEntity
  8
0
347
0
 62
     3
370
     0
430

440
        0
390
0
284
     0
100
AcDbPolyline
 90
        5
 70
     0
 10
2393.0
 20
40.0
 91
        0
 10
2393.0
 20
120.0
 91
        0
 10
2423.0
 20
120.0
 91
        0
 10
2423.0
 20
40.0
 91
        0
 10
2393.0
 20
40.0
 91
        0
  0
LINE
  5
A6
100
AcDbEntity
  8
0
347
0
 62
     1
370
     0
430

440
        0
390
0
284
     0
100
AcDbLine
 10
2200.0
 20
253.0
 30
0.0
 11
2383.0
 21
353.0
 31
0.0
  0
LINE
  5
A7
100
AcDbEntity
  8
0
347
0
 62
     1
370
     0
430

440
        0
390
0
284
     0
100
AcDbLine
 10
2383.0
 20
353.0
 30
0.0
 11
2566.0
 21
253.0
 31
0.0
  0
LINE
  5
A8
100
AcDbEntity
  8
0
347
0
 62
     1
370
     0
430

440
        0
390
0
284
     0
100
AcDbLine
 10
2215.0
 20
253.0
 30
0.0
 11
2551.0
 21
253.0
 31
0.0
  0
LINE
  5
A9
100
AcDbEntity
  8
0
347
0
 62
     2
370
     0
430

440
        0
390
0
284
     0
100
AcDbLine
 10
2160.0
 20
40.0
 30
0.0
 11
2170.0
 21
40.0
 31
0.0
  0
LINE
  5
AA
100
AcDbEntity
  8
0
347
0
 62
     2
370
     0
430

440
        0
390
0
284
     0
100
AcDbLine
 10
2160.0
 20
90.0
 30
0.0
 11
2170.0
 21
90.0
 31
0.0
  0
LINE
  5
AB
100
AcDbEntity
  8
0
347
0
 62
     2
370
     0
430

440
        0
390
0
284
     0
100
AcDbLine
 10
2160.0
 20
140.0
 30
0.0
 11
2170.0
 21
140.0
 31
0.0
  0
LINE
  5
AC
100
AcDbEntity
  8
0
347
0
 62
     2
370
     0
430

440
        0
390
0
284
     0
100
AcDbLine
 10
2160.0
 20
190.0
 30
0.0
 11
2170.0
 21
190.0
 31
0.0
  0
LINE
  5
AD
100
AcDbEntity
  8
0
347
0
 62
     2
370
     0
430

440
        0
390
0
284
     0
100
AcDbLine
 10
2160.0
 20
240.0
 30
0.0
 11
2170.0
 21
240.0
 31
0.0
  0
TEXT
  5
AE
100
AcDbEntity
  8
0
347
0
 62
     7
370
     0
430

440
        0
390
0
284
     0
100
AcDbText
 10
2313.0
 20
383.0
 30
0.0
 40
15.0
  1
SECTION CUT
100
AcDbText
  0
ENDSEC
  0
SECTION
  2
OBJECTS
  0
ENDSEC
  0
EOF
